STARTFONT 2.1
FONT --Swiss-Regular-R-Medium--18-140-96-96-P-107-IBM-UGL
SIZE 14 96 96
FONTBOUNDINGBOX 19 24 0 -5
METRICSSET 2
STARTPROPERTIES 28
FONT_ASCENT 14
FONT_DESCENT 4
PIXEL_SIZE 18
RESOLUTION_X 96
RESOLUTION_Y 96
POINT_SIZE 140
FACE_NAME "Helv"
FOUNDRY ""
FAMILY_NAME "Swiss"
WEIGHT_NAME "Regular"
RELATIVE_WEIGHT 50
SLANT "R"
SPACING "P"
SETWIDTH_NAME "Medium"
RELATIVE_SETWIDTH 50
ADD_STYLE_NAME ""
AVERAGE_WIDTH 107
UNDERLINE_POSITION 3
UNDERLINE_THICKNESS 2
SUPERSCRIPT_SIZE 14
SUBSCRIPT_SIZE 14
SUPERSCRIPT_X 0
SUPERSCRIPT_Y 7
SUBSCRIPT_X 0
SUBSCRIPT_Y 4
DEFAULT_CHAR 32
CHARSET_REGISTRY "IBM"
CHARSET_ENCODING "UGL"
ENDPROPERTIES
CHARS 330
STARTCHAR smileface
ENCODING 1
SWIDTH 857 0
DWIDTH 16 0
BBX 14 13 1 0
VVECTOR 8 19
SWIDTH1 0 -1286
DWIDTH1 0 -24
BITMAP 
1FE0
7FF8
6018
CCCC
CCCC
C00C
D02C
D86C
CFCC
C78C
6018
7FF8
1FE0
ENDCHAR
STARTCHAR invsmileface
ENCODING 2
SWIDTH 857 0
DWIDTH 16 0
BBX 14 13 1 0
VVECTOR 8 19
SWIDTH1 0 -1286
DWIDTH1 0 -24
BITMAP 
1FE0
7FF8
7FF8
F33C
F33C
FFFC
EFDC
E79C
F03C
F87C
7FF8
7FF8
1FE0
ENDCHAR
STARTCHAR heart
ENCODING 3
SWIDTH 804 0
DWIDTH 15 0
BBX 13 12 1 0
VVECTOR 8 19
SWIDTH1 0 -1286
DWIDTH1 0 -24
BITMAP 
78F0
FDF8
FDF8
FFF8
7FF0
3FE0
1FC0
1FC0
0F80
0700
0700
0200
ENDCHAR
STARTCHAR diamond
ENCODING 4
SWIDTH 804 0
DWIDTH 15 0
BBX 13 13 1 0
VVECTOR 8 19
SWIDTH1 0 -1286
DWIDTH1 0 -24
BITMAP 
0200
0700
0F80
1FC0
3FE0
7FF0
FFF8
7FF0
3FE0
1FC0
0F80
0700
0200
ENDCHAR
STARTCHAR club
ENCODING 5
SWIDTH 804 0
DWIDTH 15 0
BBX 13 13 1 0
VVECTOR 8 19
SWIDTH1 0 -1286
DWIDTH1 0 -24
BITMAP 
0700
0F80
0F80
0F80
0700
7270
FFF8
FFF8
FAF8
7270
0200
0700
1FC0
ENDCHAR
STARTCHAR spade
ENCODING 6
SWIDTH 804 0
DWIDTH 15 0
BBX 11 13 2 0
VVECTOR 8 19
SWIDTH1 0 -1286
DWIDTH1 0 -24
BITMAP 
0400
0400
0E00
1F00
3F80
7FC0
FFE0
FFE0
FFE0
75C0
0400
0E00
3F80
ENDCHAR
STARTCHAR bullet
ENCODING 7
SWIDTH 696 0
DWIDTH 13 0
BBX 7 7 3 3
VVECTOR 7 19
SWIDTH1 0 -1286
DWIDTH1 0 -24
BITMAP 
38
7C
FE
FE
FE
7C
38
ENDCHAR
STARTCHAR invbullet
ENCODING 8
SWIDTH 696 0
DWIDTH 13 0
BBX 13 13 0 0
VVECTOR 7 19
SWIDTH1 0 -1286
DWIDTH1 0 -24
BITMAP 
FFF8
FFF8
FFF8
F8F8
F078
E038
E038
E038
F078
F8F8
FFF8
FFF8
FFF8
ENDCHAR
STARTCHAR circle
ENCODING 9
SWIDTH 696 0
DWIDTH 13 0
BBX 11 11 1 1
VVECTOR 7 19
SWIDTH1 0 -1286
DWIDTH1 0 -24
BITMAP 
0E00
3F80
71C0
60C0
C060
C060
C060
60C0
71C0
3F80
0E00
ENDCHAR
STARTCHAR invcircle
ENCODING 10
SWIDTH 696 0
DWIDTH 13 0
BBX 13 13 0 0
VVECTOR 7 19
SWIDTH1 0 -1286
DWIDTH1 0 -24
BITMAP 
FFF8
F8F8
E038
C718
CF98
9FC8
9FC8
9FC8
CF98
C718
E038
F8F8
FFF8
ENDCHAR
STARTCHAR male
ENCODING 11
SWIDTH 750 0
DWIDTH 14 0
BBX 11 11 2 2
VVECTOR 8 19
SWIDTH1 0 -1286
DWIDTH1 0 -24
BITMAP 
07E0
00E0
01E0
3BA0
7F20
E620
C300
C300
E700
7E00
3C00
ENDCHAR
STARTCHAR female
ENCODING 12
SWIDTH 750 0
DWIDTH 14 0
BBX 8 15 3 -2
VVECTOR 7 19
SWIDTH1 0 -1286
DWIDTH1 0 -24
BITMAP 
3C
7E
E7
C3
C3
E7
7E
3C
18
18
FF
FF
18
18
18
ENDCHAR
STARTCHAR musicalnote
ENCODING 13
SWIDTH 804 0
DWIDTH 15 0
BBX 8 14 4 0
VVECTOR 9 19
SWIDTH1 0 -1286
DWIDTH1 0 -24
BITMAP 
18
18
1C
1E
1E
1B
1B
19
1B
1B
78
F8
F8
F0
ENDCHAR
STARTCHAR musicalnotedbl
ENCODING 14
SWIDTH 804 0
DWIDTH 15 0
BBX 11 15 2 -2
VVECTOR 8 19
SWIDTH1 0 -1286
DWIDTH1 0 -24
BITMAP 
00E0
03E0
0F60
1CE0
1BE0
1F60
1C60
1860
1860
19E0
1BE0
7BC0
FB80
F000
E000
ENDCHAR
STARTCHAR sun
ENCODING 15
SWIDTH 857 0
DWIDTH 16 0
BBX 14 14 1 0
VVECTOR 8 19
SWIDTH1 0 -1286
DWIDTH1 0 -24
BITMAP 
0300
6318
77B8
3FF0
1860
3030
F03C
F03C
3030
1860
3FF0
77B8
6318
0300
ENDCHAR
STARTCHAR triagrt
ENCODING 16
SWIDTH 1018 0
DWIDTH 19 0
BBX 16 11 2 1
VVECTOR 11 19
SWIDTH1 0 -1286
DWIDTH1 0 -24
BITMAP 
8000
F000
FE00
FFC0
FFF8
FFFF
FFF8
FFC0
FE00
F000
8000
ENDCHAR
STARTCHAR triaglf
ENCODING 17
SWIDTH 1018 0
DWIDTH 19 0
BBX 16 11 1 1
VVECTOR 9 19
SWIDTH1 0 -1286
DWIDTH1 0 -24
BITMAP 
0001
000F
007F
03FF
1FFF
FFFF
1FFF
03FF
007F
000F
0001
ENDCHAR
STARTCHAR arrowupdn
ENCODING 18
SWIDTH 750 0
DWIDTH 14 0
BBX 8 13 3 0
VVECTOR 7 19
SWIDTH1 0 -1286
DWIDTH1 0 -24
BITMAP 
18
3C
7E
DB
18
18
18
18
18
DB
7E
3C
18
ENDCHAR
STARTCHAR exclamdbl
ENCODING 19
SWIDTH 536 0
DWIDTH 10 0
BBX 6 13 2 0
VVECTOR 5 19
SWIDTH1 0 -1286
DWIDTH1 0 -24
BITMAP 
CC
CC
CC
CC
CC
CC
CC
CC
CC
CC
00
CC
CC
ENDCHAR
STARTCHAR char14
ENCODING 20
SWIDTH 589 0
DWIDTH 11 0
BBX 9 15 1 -2
VVECTOR 6 19
SWIDTH1 0 -1286
DWIDTH1 0 -24
BITMAP 
7F80
FF80
FB00
FB00
FB00
FB00
7B00
1B00
1B00
1B00
1B00
1B00
1B00
1B00
1B00
ENDCHAR
STARTCHAR char15
ENCODING 21
SWIDTH 536 0
DWIDTH 10 0
BBX 8 15 1 -1
VVECTOR 5 19
SWIDTH1 0 -1286
DWIDTH1 0 -24
BITMAP 
3C
7E
66
60
F0
D8
CC
66
33
1B
0F
06
66
7E
3C
ENDCHAR
STARTCHAR filledrect
ENCODING 22
SWIDTH 696 0
DWIDTH 13 0
BBX 11 7 1 3
VVECTOR 7 19
SWIDTH1 0 -1286
DWIDTH1 0 -24
BITMAP 
FFE0
FFE0
FFE0
FFE0
FFE0
FFE0
FFE0
ENDCHAR
STARTCHAR arrowupdnbse
ENCODING 23
SWIDTH 750 0
DWIDTH 14 0
BBX 8 16 3 -3
VVECTOR 7 19
SWIDTH1 0 -1286
DWIDTH1 0 -24
BITMAP 
18
3C
7E
DB
18
18
18
18
18
DB
7E
3C
18
00
FF
FF
ENDCHAR
STARTCHAR arrowup
ENCODING 24
SWIDTH 750 0
DWIDTH 14 0
BBX 8 13 3 0
VVECTOR 7 19
SWIDTH1 0 -1286
DWIDTH1 0 -24
BITMAP 
18
3C
7E
DB
18
18
18
18
18
18
18
18
18
ENDCHAR
STARTCHAR arrowdown
ENCODING 25
SWIDTH 750 0
DWIDTH 14 0
BBX 8 13 3 0
VVECTOR 7 19
SWIDTH1 0 -1286
DWIDTH1 0 -24
BITMAP 
18
18
18
18
18
18
18
18
18
DB
7E
3C
18
ENDCHAR
STARTCHAR arrowright
ENCODING 26
SWIDTH 750 0
DWIDTH 14 0
BBX 12 8 1 2
VVECTOR 7 19
SWIDTH1 0 -1286
DWIDTH1 0 -24
BITMAP 
0080
00C0
0060
FFF0
FFF0
0060
00C0
0080
ENDCHAR
STARTCHAR arrowleft
ENCODING 27
SWIDTH 750 0
DWIDTH 14 0
BBX 12 8 1 2
VVECTOR 7 19
SWIDTH1 0 -1286
DWIDTH1 0 -24
BITMAP 
1000
3000
6000
FFF0
FFF0
6000
3000
1000
ENDCHAR
STARTCHAR orthogonal
ENCODING 28
SWIDTH 589 0
DWIDTH 11 0
BBX 9 6 1 0
VVECTOR 6 19
SWIDTH1 0 -1286
DWIDTH1 0 -24
BITMAP 
C000
C000
C000
C000
FF80
FF80
ENDCHAR
STARTCHAR arrowboth
ENCODING 29
SWIDTH 750 0
DWIDTH 14 0
BBX 12 8 1 2
VVECTOR 7 19
SWIDTH1 0 -1286
DWIDTH1 0 -24
BITMAP 
1080
30C0
6060
FFF0
FFF0
6060
30C0
1080
ENDCHAR
STARTCHAR triagup
ENCODING 30
SWIDTH 804 0
DWIDTH 15 0
BBX 9 10 3 2
VVECTOR 8 19
SWIDTH1 0 -1286
DWIDTH1 0 -24
BITMAP 
0800
0800
1C00
1C00
3E00
3E00
7F00
7F00
FF80
FF80
ENDCHAR
STARTCHAR triagdn
ENCODING 31
SWIDTH 804 0
DWIDTH 15 0
BBX 9 10 3 1
VVECTOR 8 19
SWIDTH1 0 -1286
DWIDTH1 0 -24
BITMAP 
FF80
FF80
7F00
7F00
3E00
3E00
1C00
1C00
0800
0800
ENDCHAR
STARTCHAR space
ENCODING 32
SWIDTH 268 0
DWIDTH 5 0
BBX 0 0 5 19
VVECTOR 8 19
SWIDTH1 0 -1286
DWIDTH1 0 -24
BITMAP 
ENDCHAR
STARTCHAR exclam
ENCODING 33
SWIDTH 268 0
DWIDTH 5 0
BBX 2 14 2 0
VVECTOR 4 19
SWIDTH1 0 -1286
DWIDTH1 0 -24
BITMAP 
C0
C0
C0
C0
C0
C0
C0
C0
C0
C0
00
00
C0
C0
ENDCHAR
STARTCHAR quotedbl
ENCODING 34
SWIDTH 375 0
DWIDTH 7 0
BBX 5 4 1 10
VVECTOR 4 19
SWIDTH1 0 -1286
DWIDTH1 0 -24
BITMAP 
D8
D8
D8
D8
ENDCHAR
STARTCHAR numbersign
ENCODING 35
SWIDTH 536 0
DWIDTH 10 0
BBX 8 14 1 0
VVECTOR 5 19
SWIDTH1 0 -1286
DWIDTH1 0 -24
BITMAP 
12
12
12
12
7F
24
24
24
24
FE
48
48
48
48
ENDCHAR
STARTCHAR dollar
ENCODING 36
SWIDTH 536 0
DWIDTH 10 0
BBX 9 18 0 -2
VVECTOR 4 19
SWIDTH1 0 -1286
DWIDTH1 0 -24
BITMAP 
0800
0800
1C00
7F00
6B00
C800
E800
7800
3E00
0F00
0B80
0980
C980
6B00
7F00
1C00
0800
0800
ENDCHAR
STARTCHAR percent
ENCODING 37
SWIDTH 804 0
DWIDTH 15 0
BBX 13 14 1 0
VVECTOR 8 19
SWIDTH1 0 -1286
DWIDTH1 0 -24
BITMAP 
7830
CC60
8460
84C0
CD80
7980
0300
0600
0CF0
0D98
1908
3108
3198
60F0
ENDCHAR
STARTCHAR ampersand
ENCODING 38
SWIDTH 696 0
DWIDTH 13 0
BBX 12 14 1 0
VVECTOR 8 19
SWIDTH1 0 -1286
DWIDTH1 0 -24
BITMAP 
1800
3C00
6600
6600
6600
3C00
3860
7C60
EEC0
C7C0
C380
E3C0
7EE0
3C70
ENDCHAR
STARTCHAR quotesingle
ENCODING 39
SWIDTH 214 0
DWIDTH 4 0
BBX 2 4 1 10
VVECTOR 2 19
SWIDTH1 0 -1286
DWIDTH1 0 -24
BITMAP 
C0
C0
C0
C0
ENDCHAR
STARTCHAR parenleft
ENCODING 40
SWIDTH 321 0
DWIDTH 6 0
BBX 4 18 1 -4
VVECTOR 3 19
SWIDTH1 0 -1286
DWIDTH1 0 -24
BITMAP 
10
30
60
60
C0
C0
C0
C0
C0
C0
C0
C0
C0
C0
60
60
30
10
ENDCHAR
STARTCHAR parenright
ENCODING 41
SWIDTH 321 0
DWIDTH 6 0
BBX 4 18 1 -4
VVECTOR 3 19
SWIDTH1 0 -1286
DWIDTH1 0 -24
BITMAP 
80
C0
60
60
30
30
30
30
30
30
30
30
30
30
60
60
C0
80
ENDCHAR
STARTCHAR asterisk
ENCODING 42
SWIDTH 375 0
DWIDTH 7 0
BBX 5 7 1 7
VVECTOR 4 19
SWIDTH1 0 -1286
DWIDTH1 0 -24
BITMAP 
20
A8
F8
70
F8
A8
20
ENDCHAR
STARTCHAR plus
ENCODING 43
SWIDTH 589 0
DWIDTH 11 0
BBX 10 10 1 2
VVECTOR 7 19
SWIDTH1 0 -1286
DWIDTH1 0 -24
BITMAP 
0C00
0C00
0C00
0C00
FFC0
FFC0
0C00
0C00
0C00
0C00
ENDCHAR
STARTCHAR comma
ENCODING 44
SWIDTH 268 0
DWIDTH 5 0
BBX 2 4 2 -2
VVECTOR 4 19
SWIDTH1 0 -1286
DWIDTH1 0 -24
BITMAP 
C0
C0
40
80
ENDCHAR
STARTCHAR hyphen
ENCODING 45
SWIDTH 321 0
DWIDTH 6 0
BBX 6 2 0 4
VVECTOR 3 19
SWIDTH1 0 -1286
DWIDTH1 0 -24
BITMAP 
FC
FC
ENDCHAR
STARTCHAR period
ENCODING 46
SWIDTH 268 0
DWIDTH 5 0
BBX 2 2 2 0
VVECTOR 4 19
SWIDTH1 0 -1286
DWIDTH1 0 -24
BITMAP 
C0
C0
ENDCHAR
STARTCHAR slash
ENCODING 47
SWIDTH 268 0
DWIDTH 5 0
BBX 5 16 0 -2
VVECTOR 3 19
SWIDTH1 0 -1286
DWIDTH1 0 -24
BITMAP 
18
18
18
18
30
30
30
30
60
60
60
60
C0
C0
C0
C0
ENDCHAR
STARTCHAR zero
ENCODING 48
SWIDTH 536 0
DWIDTH 10 0
BBX 9 14 1 0
VVECTOR 6 19
SWIDTH1 0 -1286
DWIDTH1 0 -24
BITMAP 
1C00
7F00
6300
C180
C180
C180
C180
C180
C180
C180
C180
6300
7F00
1C00
ENDCHAR
STARTCHAR one
ENCODING 49
SWIDTH 536 0
DWIDTH 10 0
BBX 5 14 2 0
VVECTOR 4 19
SWIDTH1 0 -1286
DWIDTH1 0 -24
BITMAP 
18
38
F8
F8
18
18
18
18
18
18
18
18
18
18
ENDCHAR
STARTCHAR two
ENCODING 50
SWIDTH 536 0
DWIDTH 10 0
BBX 9 14 1 0
VVECTOR 6 19
SWIDTH1 0 -1286
DWIDTH1 0 -24
BITMAP 
3E00
7F00
E380
C180
0180
0380
0700
1E00
3800
7000
6000
C000
FF80
FF80
ENDCHAR
STARTCHAR three
ENCODING 51
SWIDTH 536 0
DWIDTH 10 0
BBX 9 14 1 0
VVECTOR 6 19
SWIDTH1 0 -1286
DWIDTH1 0 -24
BITMAP 
1C00
7F00
6300
C180
C180
0300
1E00
1F00
0300
C180
C180
6300
7F00
1C00
ENDCHAR
STARTCHAR four
ENCODING 52
SWIDTH 536 0
DWIDTH 10 0
BBX 9 14 1 0
VVECTOR 6 19
SWIDTH1 0 -1286
DWIDTH1 0 -24
BITMAP 
0E00
0E00
1E00
1E00
3600
3600
6600
6600
C600
FF80
FF80
0600
0600
0600
ENDCHAR
STARTCHAR five
ENCODING 53
SWIDTH 536 0
DWIDTH 10 0
BBX 9 14 1 0
VVECTOR 6 19
SWIDTH1 0 -1286
DWIDTH1 0 -24
BITMAP 
7F00
7F00
6000
6000
C000
FC00
FF00
C300
0180
0180
C180
E300
7F00
3C00
ENDCHAR
STARTCHAR six
ENCODING 54
SWIDTH 536 0
DWIDTH 10 0
BBX 9 14 1 0
VVECTOR 6 19
SWIDTH1 0 -1286
DWIDTH1 0 -24
BITMAP 
1C00
7F00
6300
C180
C000
DC00
FF00
E300
C180
C180
C180
6300
7F00
1C00
ENDCHAR
STARTCHAR seven
ENCODING 55
SWIDTH 536 0
DWIDTH 10 0
BBX 9 14 1 0
VVECTOR 6 19
SWIDTH1 0 -1286
DWIDTH1 0 -24
BITMAP 
FF80
FF80
0180
0180
0300
0300
0600
0600
0C00
0C00
0C00
1800
1800
1800
ENDCHAR
STARTCHAR eight
ENCODING 56
SWIDTH 536 0
DWIDTH 10 0
BBX 9 14 1 0
VVECTOR 6 19
SWIDTH1 0 -1286
DWIDTH1 0 -24
BITMAP 
1C00
7F00
6300
C180
C180
6300
3E00
7F00
6300
C180
C180
6300
7F00
1C00
ENDCHAR
STARTCHAR nine
ENCODING 57
SWIDTH 536 0
DWIDTH 10 0
BBX 9 14 1 0
VVECTOR 6 19
SWIDTH1 0 -1286
DWIDTH1 0 -24
BITMAP 
1C00
7F00
6300
C180
C180
C180
6380
7F80
1D80
0180
C180
6300
7F00
1C00
ENDCHAR
STARTCHAR colon
ENCODING 58
SWIDTH 268 0
DWIDTH 5 0
BBX 2 10 2 0
VVECTOR 4 19
SWIDTH1 0 -1286
DWIDTH1 0 -24
BITMAP 
C0
C0
00
00
00
00
00
00
C0
C0
ENDCHAR
STARTCHAR semicolon
ENCODING 59
SWIDTH 268 0
DWIDTH 5 0
BBX 2 12 2 -2
VVECTOR 4 19
SWIDTH1 0 -1286
DWIDTH1 0 -24
BITMAP 
C0
C0
00
00
00
00
00
00
C0
C0
40
80
ENDCHAR
STARTCHAR less
ENCODING 60
SWIDTH 589 0
DWIDTH 11 0
BBX 10 9 1 2
VVECTOR 7 19
SWIDTH1 0 -1286
DWIDTH1 0 -24
BITMAP 
00C0
03C0
0F00
3C00
F000
3C00
0F00
03C0
00C0
ENDCHAR
STARTCHAR equal
ENCODING 61
SWIDTH 589 0
DWIDTH 11 0
BBX 10 6 1 4
VVECTOR 7 19
SWIDTH1 0 -1286
DWIDTH1 0 -24
BITMAP 
FFC0
FFC0
0000
0000
FFC0
FFC0
ENDCHAR
STARTCHAR greater
ENCODING 62
SWIDTH 589 0
DWIDTH 11 0
BBX 10 9 1 2
VVECTOR 7 19
SWIDTH1 0 -1286
DWIDTH1 0 -24
BITMAP 
C000
F000
3C00
0F00
07C0
0F00
3C00
F000
C000
ENDCHAR
STARTCHAR question
ENCODING 63
SWIDTH 536 0
DWIDTH 10 0
BBX 9 14 1 0
VVECTOR 6 19
SWIDTH1 0 -1286
DWIDTH1 0 -24
BITMAP 
1C00
7F00
6300
C180
C180
0300
0700
0E00
0C00
1800
1800
0000
1800
1800
ENDCHAR
STARTCHAR at
ENCODING 64
SWIDTH 1018 0
DWIDTH 19 0
BBX 17 17 1 -3
VVECTOR 10 19
SWIDTH1 0 -1286
DWIDTH1 0 -24
BITMAP 
07F000
1C1C00
300600
600300
400100
C1D980
833080
863080
863080
8C6180
8C6300
C7BE00
400000
600000
300400
1C1C00
07F000
ENDCHAR
STARTCHAR A
ENCODING 65
SWIDTH 696 0
DWIDTH 13 0
BBX 13 14 0 0
VVECTOR 7 19
SWIDTH1 0 -1286
DWIDTH1 0 -24
BITMAP 
0700
0700
0D80
0D80
18C0
18C0
18C0
3060
3FE0
7FF0
6030
6030
C018
C018
ENDCHAR
STARTCHAR B
ENCODING 66
SWIDTH 643 0
DWIDTH 12 0
BBX 10 14 1 0
VVECTOR 6 19
SWIDTH1 0 -1286
DWIDTH1 0 -24
BITMAP 
FF00
FF80
C1C0
C0C0
C0C0
C1C0
FF80
FF80
C1C0
C0C0
C0C0
C1C0
FF80
FF00
ENDCHAR
STARTCHAR C
ENCODING 67
SWIDTH 696 0
DWIDTH 13 0
BBX 12 14 1 0
VVECTOR 8 19
SWIDTH1 0 -1286
DWIDTH1 0 -24
BITMAP 
0F80
3FE0
7070
6030
C000
C000
C000
C000
C000
C000
6030
7070
3FE0
0F80
ENDCHAR
STARTCHAR D
ENCODING 68
SWIDTH 696 0
DWIDTH 13 0
BBX 11 14 1 0
VVECTOR 7 19
SWIDTH1 0 -1286
DWIDTH1 0 -24
BITMAP 
FE00
FF80
C1C0
C0C0
C060
C060
C060
C060
C060
C060
C0C0
C1C0
FF80
FE00
ENDCHAR
STARTCHAR E
ENCODING 69
SWIDTH 696 0
DWIDTH 13 0
BBX 11 14 1 0
VVECTOR 7 19
SWIDTH1 0 -1286
DWIDTH1 0 -24
BITMAP 
FFE0
FFE0
C000
C000
C000
C000
FFC0
FFC0
C000
C000
C000
C000
FFE0
FFE0
ENDCHAR
STARTCHAR F
ENCODING 70
SWIDTH 643 0
DWIDTH 12 0
BBX 11 14 1 0
VVECTOR 7 19
SWIDTH1 0 -1286
DWIDTH1 0 -24
BITMAP 
FFE0
FFE0
C000
C000
C000
C000
FFC0
FFC0
C000
C000
C000
C000
C000
C000
ENDCHAR
STARTCHAR G
ENCODING 71
SWIDTH 750 0
DWIDTH 14 0
BBX 12 14 1 0
VVECTOR 7 19
SWIDTH1 0 -1286
DWIDTH1 0 -24
BITMAP 
0F80
3FE0
7070
6030
C000
C000
C000
C0F0
C0F0
C030
6030
7070
3FF0
0FB0
ENDCHAR
STARTCHAR H
ENCODING 72
SWIDTH 750 0
DWIDTH 14 0
BBX 12 14 1 0
VVECTOR 7 19
SWIDTH1 0 -1286
DWIDTH1 0 -24
BITMAP 
C030
C030
C030
C030
C030
C030
FFF0
FFF0
C030
C030
C030
C030
C030
C030
ENDCHAR
STARTCHAR I
ENCODING 73
SWIDTH 214 0
DWIDTH 4 0
BBX 2 14 1 0
VVECTOR 2 19
SWIDTH1 0 -1286
DWIDTH1 0 -24
BITMAP 
C0
C0
C0
C0
C0
C0
C0
C0
C0
C0
C0
C0
C0
C0
ENDCHAR
STARTCHAR J
ENCODING 74
SWIDTH 482 0
DWIDTH 9 0
BBX 8 14 0 0
VVECTOR 4 19
SWIDTH1 0 -1286
DWIDTH1 0 -24
BITMAP 
03
03
03
03
03
03
03
03
03
03
C3
E7
7E
18
ENDCHAR
STARTCHAR K
ENCODING 75
SWIDTH 643 0
DWIDTH 12 0
BBX 11 14 1 0
VVECTOR 7 19
SWIDTH1 0 -1286
DWIDTH1 0 -24
BITMAP 
C1C0
C380
C700
CE00
DC00
F800
F000
F800
DC00
CE00
C700
C380
C1C0
C0E0
ENDCHAR
STARTCHAR L
ENCODING 76
SWIDTH 536 0
DWIDTH 10 0
BBX 9 14 1 0
VVECTOR 6 19
SWIDTH1 0 -1286
DWIDTH1 0 -24
BITMAP 
C000
C000
C000
C000
C000
C000
C000
C000
C000
C000
C000
C000
FF80
FF80
ENDCHAR
STARTCHAR M
ENCODING 77
SWIDTH 857 0
DWIDTH 16 0
BBX 14 14 1 0
VVECTOR 8 19
SWIDTH1 0 -1286
DWIDTH1 0 -24
BITMAP 
C00C
C00C
E01C
E01C
F03C
F03C
D86C
D86C
CCCC
CCCC
C78C
C78C
C30C
C30C
ENDCHAR
STARTCHAR N
ENCODING 78
SWIDTH 750 0
DWIDTH 14 0
BBX 12 14 1 0
VVECTOR 7 19
SWIDTH1 0 -1286
DWIDTH1 0 -24
BITMAP 
E030
F030
F030
F830
DC30
CC30
CE30
C730
C330
C3B0
C1F0
C0F0
C0F0
C070
ENDCHAR
STARTCHAR O
ENCODING 79
SWIDTH 804 0
DWIDTH 15 0
BBX 13 14 1 0
VVECTOR 8 19
SWIDTH1 0 -1286
DWIDTH1 0 -24
BITMAP 
0F80
3FE0
7070
6030
C018
C018
C018
C018
C018
C018
6030
7070
3FE0
0F80
ENDCHAR
STARTCHAR P
ENCODING 80
SWIDTH 643 0
DWIDTH 12 0
BBX 11 14 1 0
VVECTOR 7 19
SWIDTH1 0 -1286
DWIDTH1 0 -24
BITMAP 
FF00
FFC0
C0C0
C060
C060
C060
C0C0
FFC0
FF00
C000
C000
C000
C000
C000
ENDCHAR
STARTCHAR Q
ENCODING 81
SWIDTH 804 0
DWIDTH 15 0
BBX 13 14 1 0
VVECTOR 8 19
SWIDTH1 0 -1286
DWIDTH1 0 -24
BITMAP 
0F80
3FE0
7070
6030
C018
C018
C018
C018
C098
C1D8
60F0
7070
3FF8
0F90
ENDCHAR
STARTCHAR R
ENCODING 82
SWIDTH 696 0
DWIDTH 13 0
BBX 12 14 1 0
VVECTOR 8 19
SWIDTH1 0 -1286
DWIDTH1 0 -24
BITMAP 
FF00
FFC0
C0C0
C060
C060
C060
C0C0
FFC0
FFC0
C060
C060
C060
C060
C030
ENDCHAR
STARTCHAR S
ENCODING 83
SWIDTH 643 0
DWIDTH 12 0
BBX 10 14 1 0
VVECTOR 6 19
SWIDTH1 0 -1286
DWIDTH1 0 -24
BITMAP 
1E00
7F80
E1C0
C0C0
E000
7800
3F00
0F80
01C0
00C0
C0C0
E1C0
7F80
1E00
ENDCHAR
STARTCHAR T
ENCODING 84
SWIDTH 643 0
DWIDTH 12 0
BBX 12 14 0 0
VVECTOR 6 19
SWIDTH1 0 -1286
DWIDTH1 0 -24
BITMAP 
FFF0
FFF0
0600
0600
0600
0600
0600
0600
0600
0600
0600
0600
0600
0600
ENDCHAR
STARTCHAR U
ENCODING 85
SWIDTH 696 0
DWIDTH 13 0
BBX 11 14 1 0
VVECTOR 7 19
SWIDTH1 0 -1286
DWIDTH1 0 -24
BITMAP 
C060
C060
C060
C060
C060
C060
C060
C060
C060
C060
60C0
71C0
3F80
0E00
ENDCHAR
STARTCHAR V
ENCODING 86
SWIDTH 696 0
DWIDTH 13 0
BBX 13 14 0 0
VVECTOR 7 19
SWIDTH1 0 -1286
DWIDTH1 0 -24
BITMAP 
C018
C018
6030
6030
3060
3060
3060
18C0
18C0
0D80
0D80
0F80
0700
0700
ENDCHAR
STARTCHAR W
ENCODING 87
SWIDTH 964 0
DWIDTH 18 0
BBX 18 14 0 0
VVECTOR 9 19
SWIDTH1 0 -1286
DWIDTH1 0 -24
BITMAP 
C0C0C0
C0C0C0
C0C0C0
61E180
61E180
61E180
333300
333300
333300
1E1E00
1E1E00
1E1E00
0C0C00
0C0C00
ENDCHAR
STARTCHAR X
ENCODING 88
SWIDTH 750 0
DWIDTH 14 0
BBX 14 14 0 0
VVECTOR 7 19
SWIDTH1 0 -1286
DWIDTH1 0 -24
BITMAP 
C00C
E01C
7038
3870
1CE0
0FC0
0780
0780
0FC0
1CE0
3870
7038
E01C
C00C
ENDCHAR
STARTCHAR Y
ENCODING 89
SWIDTH 643 0
DWIDTH 12 0
BBX 12 14 0 0
VVECTOR 6 19
SWIDTH1 0 -1286
DWIDTH1 0 -24
BITMAP 
C030
E070
6060
30C0
39C0
1980
0F00
0F00
0600
0600
0600
0600
0600
0600
ENDCHAR
STARTCHAR Z
ENCODING 90
SWIDTH 643 0
DWIDTH 12 0
BBX 12 14 0 0
VVECTOR 6 19
SWIDTH1 0 -1286
DWIDTH1 0 -24
BITMAP 
7FF0
7FF0
0070
00E0
01C0
0380
0700
0E00
1C00
3800
7000
E000
FFF0
FFF0
ENDCHAR
STARTCHAR bracketleft
ENCODING 91
SWIDTH 268 0
DWIDTH 5 0
BBX 4 19 1 -4
VVECTOR 4 19
SWIDTH1 0 -1286
DWIDTH1 0 -24
BITMAP 
F0
F0
C0
C0
C0
C0
C0
C0
C0
C0
C0
C0
C0
C0
C0
C0
C0
F0
F0
ENDCHAR
STARTCHAR backslash
ENCODING 92
SWIDTH 268 0
DWIDTH 5 0
BBX 5 16 0 -2
VVECTOR 3 19
SWIDTH1 0 -1286
DWIDTH1 0 -24
BITMAP 
C0
C0
C0
C0
60
60
60
60
30
30
30
30
18
18
18
18
ENDCHAR
STARTCHAR bracketright
ENCODING 93
SWIDTH 268 0
DWIDTH 5 0
BBX 4 19 0 -4
VVECTOR 2 19
SWIDTH1 0 -1286
DWIDTH1 0 -24
BITMAP 
F0
F0
30
30
30
30
30
30
30
30
30
30
30
30
30
30
30
F0
F0
ENDCHAR
STARTCHAR asciicircum
ENCODING 94
SWIDTH 429 0
DWIDTH 8 0
BBX 8 3 0 14
VVECTOR 4 19
SWIDTH1 0 -1286
DWIDTH1 0 -24
BITMAP 
3C
7E
E7
ENDCHAR
STARTCHAR underscore
ENCODING 95
SWIDTH 536 0
DWIDTH 10 0
BBX 10 2 0 -3
VVECTOR 5 19
SWIDTH1 0 -1286
DWIDTH1 0 -24
BITMAP 
FFC0
FFC0
ENDCHAR
STARTCHAR grave
ENCODING 96
SWIDTH 321 0
DWIDTH 6 0
BBX 4 3 1 11
VVECTOR 3 19
SWIDTH1 0 -1286
DWIDTH1 0 -24
BITMAP 
E0
30
10
ENDCHAR
STARTCHAR a
ENCODING 97
SWIDTH 536 0
DWIDTH 10 0
BBX 9 10 1 0
VVECTOR 6 19
SWIDTH1 0 -1286
DWIDTH1 0 -24
BITMAP 
3C00
7E00
E700
0300
1F00
7300
C300
C700
FF80
7980
ENDCHAR
STARTCHAR b
ENCODING 98
SWIDTH 589 0
DWIDTH 11 0
BBX 9 14 1 0
VVECTOR 6 19
SWIDTH1 0 -1286
DWIDTH1 0 -24
BITMAP 
C000
C000
C000
C000
DC00
FF00
E300
C180
C180
C180
C180
E300
FF00
DC00
ENDCHAR
STARTCHAR c
ENCODING 99
SWIDTH 536 0
DWIDTH 10 0
BBX 9 10 1 0
VVECTOR 6 19
SWIDTH1 0 -1286
DWIDTH1 0 -24
BITMAP 
1C00
7F00
6300
C180
C000
C000
C180
6300
7F00
1C00
ENDCHAR
STARTCHAR d
ENCODING 100
SWIDTH 589 0
DWIDTH 11 0
BBX 9 14 1 0
VVECTOR 6 19
SWIDTH1 0 -1286
DWIDTH1 0 -24
BITMAP 
0180
0180
0180
0180
1D80
7F80
6380
C180
C180
C180
C180
6380
7F80
1D80
ENDCHAR
STARTCHAR e
ENCODING 101
SWIDTH 589 0
DWIDTH 11 0
BBX 9 10 1 0
VVECTOR 6 19
SWIDTH1 0 -1286
DWIDTH1 0 -24
BITMAP 
1C00
7F00
6300
C180
FF80
FF80
C000
6180
7F00
1C00
ENDCHAR
STARTCHAR f
ENCODING 102
SWIDTH 214 0
DWIDTH 4 0
BBX 4 14 0 0
VVECTOR 2 19
SWIDTH1 0 -1286
DWIDTH1 0 -24
BITMAP 
30
70
60
60
F0
F0
60
60
60
60
60
60
60
60
ENDCHAR
STARTCHAR g
ENCODING 103
SWIDTH 589 0
DWIDTH 11 0
BBX 9 14 1 -4
VVECTOR 6 19
SWIDTH1 0 -1286
DWIDTH1 0 -24
BITMAP 
1D80
7F80
6380
C180
C180
C180
C180
6380
7F80
1D80
C180
6300
7F00
1C00
ENDCHAR
STARTCHAR h
ENCODING 104
SWIDTH 589 0
DWIDTH 11 0
BBX 9 14 1 0
VVECTOR 6 19
SWIDTH1 0 -1286
DWIDTH1 0 -24
BITMAP 
C000
C000
C000
C000
DC00
FF00
E300
C180
C180
C180
C180
C180
C180
C180
ENDCHAR
STARTCHAR i
ENCODING 105
SWIDTH 214 0
DWIDTH 4 0
BBX 2 14 1 0
VVECTOR 2 19
SWIDTH1 0 -1286
DWIDTH1 0 -24
BITMAP 
C0
C0
00
00
C0
C0
C0
C0
C0
C0
C0
C0
C0
C0
ENDCHAR
STARTCHAR j
ENCODING 106
SWIDTH 214 0
DWIDTH 4 0
BBX 3 18 0 -4
VVECTOR 1 19
SWIDTH1 0 -1286
DWIDTH1 0 -24
BITMAP 
60
60
00
00
60
60
60
60
60
60
60
60
60
60
60
60
E0
C0
ENDCHAR
STARTCHAR k
ENCODING 107
SWIDTH 482 0
DWIDTH 9 0
BBX 8 14 1 0
VVECTOR 6 19
SWIDTH1 0 -1286
DWIDTH1 0 -24
BITMAP 
C0
C0
C0
C0
C3
C6
CC
D8
F0
F8
CC
C6
C3
C1
ENDCHAR
STARTCHAR l
ENCODING 108
SWIDTH 214 0
DWIDTH 4 0
BBX 2 14 1 0
VVECTOR 2 19
SWIDTH1 0 -1286
DWIDTH1 0 -24
BITMAP 
C0
C0
C0
C0
C0
C0
C0
C0
C0
C0
C0
C0
C0
C0
ENDCHAR
STARTCHAR m
ENCODING 109
SWIDTH 857 0
DWIDTH 16 0
BBX 14 10 1 0
VVECTOR 8 19
SWIDTH1 0 -1286
DWIDTH1 0 -24
BITMAP 
DC70
FEF8
E79C
C30C
C30C
C30C
C30C
C30C
C30C
C30C
ENDCHAR
STARTCHAR n
ENCODING 110
SWIDTH 589 0
DWIDTH 11 0
BBX 9 10 1 0
VVECTOR 6 19
SWIDTH1 0 -1286
DWIDTH1 0 -24
BITMAP 
DC00
FF00
E300
C180
C180
C180
C180
C180
C180
C180
ENDCHAR
STARTCHAR o
ENCODING 111
SWIDTH 589 0
DWIDTH 11 0
BBX 9 10 1 0
VVECTOR 6 19
SWIDTH1 0 -1286
DWIDTH1 0 -24
BITMAP 
1C00
7F00
6300
C180
C180
C180
C180
6300
7F00
1C00
ENDCHAR
STARTCHAR p
ENCODING 112
SWIDTH 589 0
DWIDTH 11 0
BBX 9 14 1 -4
VVECTOR 6 19
SWIDTH1 0 -1286
DWIDTH1 0 -24
BITMAP 
DC00
FF00
E300
C180
C180
C180
C180
E300
FF00
DC00
C000
C000
C000
C000
ENDCHAR
STARTCHAR q
ENCODING 113
SWIDTH 589 0
DWIDTH 11 0
BBX 9 14 1 -4
VVECTOR 6 19
SWIDTH1 0 -1286
DWIDTH1 0 -24
BITMAP 
1D80
7F80
6380
C180
C180
C180
C180
6380
7F80
1D80
0180
0180
0180
0180
ENDCHAR
STARTCHAR r
ENCODING 114
SWIDTH 321 0
DWIDTH 6 0
BBX 5 10 1 0
VVECTOR 4 19
SWIDTH1 0 -1286
DWIDTH1 0 -24
BITMAP 
D8
F8
E0
C0
C0
C0
C0
C0
C0
C0
ENDCHAR
STARTCHAR s
ENCODING 115
SWIDTH 482 0
DWIDTH 9 0
BBX 7 10 1 0
VVECTOR 5 19
SWIDTH1 0 -1286
DWIDTH1 0 -24
BITMAP 
38
7C
C6
E0
78
1C
06
C6
7C
38
ENDCHAR
STARTCHAR t
ENCODING 116
SWIDTH 214 0
DWIDTH 4 0
BBX 4 13 0 0
VVECTOR 2 19
SWIDTH1 0 -1286
DWIDTH1 0 -24
BITMAP 
60
60
60
F0
F0
60
60
60
60
60
60
70
30
ENDCHAR
STARTCHAR u
ENCODING 117
SWIDTH 589 0
DWIDTH 11 0
BBX 9 10 1 0
VVECTOR 6 19
SWIDTH1 0 -1286
DWIDTH1 0 -24
BITMAP 
C180
C180
C180
C180
C180
C180
C180
6380
7F80
1D80
ENDCHAR
STARTCHAR v
ENCODING 118
SWIDTH 482 0
DWIDTH 9 0
BBX 9 10 0 0
VVECTOR 5 19
SWIDTH1 0 -1286
DWIDTH1 0 -24
BITMAP 
C180
C180
C180
6300
6300
3600
3600
3E00
1C00
1C00
ENDCHAR
STARTCHAR w
ENCODING 119
SWIDTH 750 0
DWIDTH 14 0
BBX 14 10 0 0
VVECTOR 7 19
SWIDTH1 0 -1286
DWIDTH1 0 -24
BITMAP 
C30C
C30C
6318
6798
6798
3CF0
3CF0
1CE0
1860
1860
ENDCHAR
STARTCHAR x
ENCODING 120
SWIDTH 536 0
DWIDTH 10 0
BBX 10 10 0 0
VVECTOR 5 19
SWIDTH1 0 -1286
DWIDTH1 0 -24
BITMAP 
C0C0
E1C0
7380
3F00
1E00
1E00
3F00
7380
E1C0
C0C0
ENDCHAR
STARTCHAR y
ENCODING 121
SWIDTH 482 0
DWIDTH 9 0
BBX 9 14 0 -4
VVECTOR 5 19
SWIDTH1 0 -1286
DWIDTH1 0 -24
BITMAP 
C180
C180
C180
6300
6300
3600
3600
3E00
1C00
1C00
1800
1800
7800
7000
ENDCHAR
STARTCHAR z
ENCODING 122
SWIDTH 482 0
DWIDTH 9 0
BBX 9 10 0 0
VVECTOR 5 19
SWIDTH1 0 -1286
DWIDTH1 0 -24
BITMAP 
FF80
FF80
0300
0600
0C00
1800
3000
6000
FF80
FF80
ENDCHAR
STARTCHAR braceleft
ENCODING 123
SWIDTH 321 0
DWIDTH 6 0
BBX 5 18 1 -4
VVECTOR 4 19
SWIDTH1 0 -1286
DWIDTH1 0 -24
BITMAP 
18
30
30
30
30
30
30
60
C0
C0
60
30
30
30
30
30
30
18
ENDCHAR
STARTCHAR bar
ENCODING 124
SWIDTH 214 0
DWIDTH 4 0
BBX 2 19 1 -5
VVECTOR 2 19
SWIDTH1 0 -1286
DWIDTH1 0 -24
BITMAP 
C0
C0
C0
C0
C0
C0
C0
C0
C0
C0
C0
C0
C0
C0
C0
C0
C0
C0
C0
ENDCHAR
STARTCHAR braceright
ENCODING 125
SWIDTH 321 0
DWIDTH 6 0
BBX 5 18 0 -4
VVECTOR 2 19
SWIDTH1 0 -1286
DWIDTH1 0 -24
BITMAP 
C0
60
60
60
60
60
60
30
18
18
30
60
60
60
60
60
60
C0
ENDCHAR
STARTCHAR asciitilde
ENCODING 126
SWIDTH 429 0
DWIDTH 8 0
BBX 8 3 0 14
VVECTOR 4 19
SWIDTH1 0 -1286
DWIDTH1 0 -24
BITMAP 
33
7E
CC
ENDCHAR
STARTCHAR house
ENCODING 127
SWIDTH 804 0
DWIDTH 15 0
BBX 11 13 2 0
VVECTOR 8 19
SWIDTH1 0 -1286
DWIDTH1 0 -24
BITMAP 
0400
0E00
1B00
3180
60C0
C060
C060
C060
C060
C060
C060
FFE0
FFE0
ENDCHAR
STARTCHAR Ccedilla
ENCODING 128
SWIDTH 696 0
DWIDTH 13 0
BBX 12 18 1 -4
VVECTOR 8 19
SWIDTH1 0 -1286
DWIDTH1 0 -24
BITMAP 
0F80
3FE0
7070
6030
C000
C000
C000
C000
C000
C000
6030
7070
3FE0
0F80
0300
0180
0580
0700
ENDCHAR
STARTCHAR udieresis
ENCODING 129
SWIDTH 589 0
DWIDTH 11 0
BBX 9 14 1 0
VVECTOR 6 19
SWIDTH1 0 -1286
DWIDTH1 0 -24
BITMAP 
6300
6300
0000
0000
C180
C180
C180
C180
C180
C180
C180
6380
7F80
1D80
ENDCHAR
STARTCHAR eacute
ENCODING 130
SWIDTH 589 0
DWIDTH 11 0
BBX 9 14 1 0
VVECTOR 6 19
SWIDTH1 0 -1286
DWIDTH1 0 -24
BITMAP 
0E00
1800
1000
0000
1C00
7F00
6300
C180
FF80
FF80
C000
6180
7F00
1C00
ENDCHAR
STARTCHAR acircumflex
ENCODING 131
SWIDTH 536 0
DWIDTH 10 0
BBX 9 14 1 0
VVECTOR 6 19
SWIDTH1 0 -1286
DWIDTH1 0 -24
BITMAP 
3800
6C00
C600
0000
3C00
7E00
E700
0300
1F00
7300
C300
C700
FF80
7980
ENDCHAR
STARTCHAR adieresis
ENCODING 132
SWIDTH 536 0
DWIDTH 10 0
BBX 9 14 1 0
VVECTOR 6 19
SWIDTH1 0 -1286
DWIDTH1 0 -24
BITMAP 
6300
6300
0000
0000
3C00
7E00
E700
0300
1F00
7300
C300
C700
FF80
7980
ENDCHAR
STARTCHAR agrave
ENCODING 133
SWIDTH 536 0
DWIDTH 10 0
BBX 9 14 1 0
VVECTOR 6 19
SWIDTH1 0 -1286
DWIDTH1 0 -24
BITMAP 
7000
1800
0800
0000
3C00
7E00
E700
0300
1F00
7300
C300
C700
FF80
7980
ENDCHAR
STARTCHAR aring
ENCODING 134
SWIDTH 536 0
DWIDTH 10 0
BBX 9 15 1 0
VVECTOR 6 19
SWIDTH1 0 -1286
DWIDTH1 0 -24
BITMAP 
1800
2400
2400
1800
0000
3C00
7E00
E700
0300
1F00
7300
C300
C700
FF80
7980
ENDCHAR
STARTCHAR ccedilla
ENCODING 135
SWIDTH 536 0
DWIDTH 10 0
BBX 9 14 1 -4
VVECTOR 6 19
SWIDTH1 0 -1286
DWIDTH1 0 -24
BITMAP 
1C00
7F00
6300
C180
C000
C000
C180
6300
7F00
1C00
0C00
0600
1600
1C00
ENDCHAR
STARTCHAR ecircumflex
ENCODING 136
SWIDTH 589 0
DWIDTH 11 0
BBX 9 14 1 0
VVECTOR 6 19
SWIDTH1 0 -1286
DWIDTH1 0 -24
BITMAP 
1C00
3600
6300
0000
1C00
7F00
6300
C180
FF80
FF80
C000
6180
7F00
1C00
ENDCHAR
STARTCHAR edieresis
ENCODING 137
SWIDTH 589 0
DWIDTH 11 0
BBX 9 14 1 0
VVECTOR 6 19
SWIDTH1 0 -1286
DWIDTH1 0 -24
BITMAP 
6300
6300
0000
0000
1C00
7F00
6300
C180
FF80
FF80
C000
6180
7F00
1C00
ENDCHAR
STARTCHAR egrave
ENCODING 138
SWIDTH 589 0
DWIDTH 11 0
BBX 9 14 1 0
VVECTOR 6 19
SWIDTH1 0 -1286
DWIDTH1 0 -24
BITMAP 
3800
0C00
0400
0000
1C00
7F00
6300
C180
FF80
FF80
C000
6180
7F00
1C00
ENDCHAR
STARTCHAR idieresis
ENCODING 139
SWIDTH 214 0
DWIDTH 4 0
BBX 4 14 0 0
VVECTOR 2 19
SWIDTH1 0 -1286
DWIDTH1 0 -24
BITMAP 
90
90
00
00
60
60
60
60
60
60
60
60
60
60
ENDCHAR
STARTCHAR icircumflex
ENCODING 140
SWIDTH 214 0
DWIDTH 4 0
BBX 4 14 0 0
VVECTOR 2 19
SWIDTH1 0 -1286
DWIDTH1 0 -24
BITMAP 
60
F0
90
00
60
60
60
60
60
60
60
60
60
60
ENDCHAR
STARTCHAR igrave
ENCODING 141
SWIDTH 214 0
DWIDTH 4 0
BBX 4 14 0 0
VVECTOR 2 19
SWIDTH1 0 -1286
DWIDTH1 0 -24
BITMAP 
E0
30
10
00
60
60
60
60
60
60
60
60
60
60
ENDCHAR
STARTCHAR Adieresis
ENCODING 142
SWIDTH 696 0
DWIDTH 13 0
BBX 13 19 0 0
VVECTOR 7 19
SWIDTH1 0 -1286
DWIDTH1 0 -24
BITMAP 
18C0
18C0
0000
0000
0000
0700
0700
0D80
0D80
18C0
18C0
18C0
3060
3FE0
7FF0
6030
6030
C018
C018
ENDCHAR
STARTCHAR Aring
ENCODING 143
SWIDTH 696 0
DWIDTH 13 0
BBX 13 19 0 0
VVECTOR 7 19
SWIDTH1 0 -1286
DWIDTH1 0 -24
BITMAP 
0700
0D80
0880
0D80
0700
0700
0700
0D80
0D80
18C0
18C0
18C0
3060
3FE0
7FF0
6030
6030
C018
C018
ENDCHAR
STARTCHAR Eacute
ENCODING 144
SWIDTH 696 0
DWIDTH 13 0
BBX 11 19 1 0
VVECTOR 7 19
SWIDTH1 0 -1286
DWIDTH1 0 -24
BITMAP 
0700
0C00
0800
0000
0000
FFE0
FFE0
C000
C000
C000
C000
FFC0
FFC0
C000
C000
C000
C000
FFE0
FFE0
ENDCHAR
STARTCHAR ae
ENCODING 145
SWIDTH 911 0
DWIDTH 17 0
BBX 15 10 1 0
VVECTOR 9 19
SWIDTH1 0 -1286
DWIDTH1 0 -24
BITMAP 
3CF0
7FFC
E78C
0306
1FFE
73FE
C300
C786
FFFC
78F0
ENDCHAR
STARTCHAR AE
ENCODING 146
SWIDTH 1018 0
DWIDTH 19 0
BBX 18 14 0 0
VVECTOR 9 19
SWIDTH1 0 -1286
DWIDTH1 0 -24
BITMAP 
03FFC0
03FFC0
06C000
06C000
0CC000
0CC000
18FF80
18FF80
3FC000
3FC000
60C000
60C000
C0FFC0
C0FFC0
ENDCHAR
STARTCHAR ocircumflex
ENCODING 147
SWIDTH 589 0
DWIDTH 11 0
BBX 9 14 1 0
VVECTOR 6 19
SWIDTH1 0 -1286
DWIDTH1 0 -24
BITMAP 
1C00
3600
6300
0000
1C00
7F00
6300
C180
C180
C180
C180
6300
7F00
1C00
ENDCHAR
STARTCHAR odieresis
ENCODING 148
SWIDTH 589 0
DWIDTH 11 0
BBX 9 14 1 0
VVECTOR 6 19
SWIDTH1 0 -1286
DWIDTH1 0 -24
BITMAP 
6300
6300
0000
0000
1C00
7F00
6300
C180
C180
C180
C180
6300
7F00
1C00
ENDCHAR
STARTCHAR ograve
ENCODING 149
SWIDTH 589 0
DWIDTH 11 0
BBX 9 14 1 0
VVECTOR 6 19
SWIDTH1 0 -1286
DWIDTH1 0 -24
BITMAP 
3800
0C00
0400
0000
1C00
7F00
6300
C180
C180
C180
C180
6300
7F00
1C00
ENDCHAR
STARTCHAR ucircumflex
ENCODING 150
SWIDTH 589 0
DWIDTH 11 0
BBX 9 14 1 0
VVECTOR 6 19
SWIDTH1 0 -1286
DWIDTH1 0 -24
BITMAP 
1C00
3600
6300
0000
C180
C180
C180
C180
C180
C180
C180
6380
7F80
1D80
ENDCHAR
STARTCHAR ugrave
ENCODING 151
SWIDTH 589 0
DWIDTH 11 0
BBX 9 14 1 0
VVECTOR 6 19
SWIDTH1 0 -1286
DWIDTH1 0 -24
BITMAP 
3800
0C00
0400
0000
C180
C180
C180
C180
C180
C180
C180
6380
7F80
1D80
ENDCHAR
STARTCHAR ydieresis
ENCODING 152
SWIDTH 482 0
DWIDTH 9 0
BBX 9 18 0 -4
VVECTOR 5 19
SWIDTH1 0 -1286
DWIDTH1 0 -24
BITMAP 
6300
6300
0000
0000
C180
C180
C180
6300
6300
3600
3600
3E00
1C00
1C00
1800
1800
7000
6000
ENDCHAR
STARTCHAR Odieresis
ENCODING 153
SWIDTH 804 0
DWIDTH 15 0
BBX 13 19 1 0
VVECTOR 8 19
SWIDTH1 0 -1286
DWIDTH1 0 -24
BITMAP 
18C0
18C0
0000
0000
0000
0F80
3FE0
7070
6030
C018
C018
C018
C018
C018
C018
6030
7070
3FE0
0F80
ENDCHAR
STARTCHAR Udieresis
ENCODING 154
SWIDTH 696 0
DWIDTH 13 0
BBX 11 19 1 0
VVECTOR 7 19
SWIDTH1 0 -1286
DWIDTH1 0 -24
BITMAP 
3180
3180
0000
0000
0000
C060
C060
C060
C060
C060
C060
C060
C060
C060
C060
60C0
71C0
3F80
0E00
ENDCHAR
STARTCHAR oslash
ENCODING 155
SWIDTH 589 0
DWIDTH 11 0
BBX 9 10 1 0
VVECTOR 6 19
SWIDTH1 0 -1286
DWIDTH1 0 -24
BITMAP 
1C80
7F00
6300
C580
C980
C980
D180
6300
7F00
9C00
ENDCHAR
STARTCHAR sterling
ENCODING 156
SWIDTH 536 0
DWIDTH 10 0
BBX 9 14 1 0
VVECTOR 6 19
SWIDTH1 0 -1286
DWIDTH1 0 -24
BITMAP 
1E00
3F00
6180
6000
6000
6000
FC00
6000
3000
3000
3000
6180
FF80
EF00
ENDCHAR
STARTCHAR Oslash
ENCODING 157
SWIDTH 804 0
DWIDTH 15 0
BBX 13 14 1 0
VVECTOR 8 19
SWIDTH1 0 -1286
DWIDTH1 0 -24
BITMAP 
0F88
3FF8
7070
6070
C0D8
C198
C318
C618
CC18
D818
7030
7070
FFE0
8F80
ENDCHAR
STARTCHAR multiply
ENCODING 158
SWIDTH 643 0
DWIDTH 12 0
BBX 8 8 2 2
VVECTOR 6 19
SWIDTH1 0 -1286
DWIDTH1 0 -24
BITMAP 
42
E7
7E
3C
3C
7E
E7
42
ENDCHAR
STARTCHAR florin
ENCODING 159
SWIDTH 643 0
DWIDTH 12 0
BBX 10 17 1 -3
VVECTOR 6 19
SWIDTH1 0 -1286
DWIDTH1 0 -24
BITMAP 
01C0
03C0
0300
0600
0600
3F80
3F80
0C00
0C00
1800
1800
1800
1800
3000
3000
F000
E000
ENDCHAR
STARTCHAR aacute
ENCODING 160
SWIDTH 536 0
DWIDTH 10 0
BBX 9 14 1 0
VVECTOR 6 19
SWIDTH1 0 -1286
DWIDTH1 0 -24
BITMAP 
1C00
3000
2000
0000
3C00
7E00
E700
0300
1F00
7300
C300
C700
FF80
7980
ENDCHAR
STARTCHAR iacute
ENCODING 161
SWIDTH 214 0
DWIDTH 4 0
BBX 4 14 0 0
VVECTOR 2 19
SWIDTH1 0 -1286
DWIDTH1 0 -24
BITMAP 
70
C0
80
00
60
60
60
60
60
60
60
60
60
60
ENDCHAR
STARTCHAR oacute
ENCODING 162
SWIDTH 589 0
DWIDTH 11 0
BBX 9 14 1 0
VVECTOR 6 19
SWIDTH1 0 -1286
DWIDTH1 0 -24
BITMAP 
0E00
1800
1000
0000
1C00
7F00
6300
C180
C180
C180
C180
6300
7F00
1C00
ENDCHAR
STARTCHAR uacute
ENCODING 163
SWIDTH 589 0
DWIDTH 11 0
BBX 9 14 1 0
VVECTOR 6 19
SWIDTH1 0 -1286
DWIDTH1 0 -24
BITMAP 
0E00
1800
1000
0000
C180
C180
C180
C180
C180
C180
C180
6380
7F80
1D80
ENDCHAR
STARTCHAR ntilde
ENCODING 164
SWIDTH 589 0
DWIDTH 11 0
BBX 9 14 1 0
VVECTOR 6 19
SWIDTH1 0 -1286
DWIDTH1 0 -24
BITMAP 
7100
DB00
8E00
0000
DC00
FF00
E300
C180
C180
C180
C180
C180
C180
C180
ENDCHAR
STARTCHAR Ntilde
ENCODING 165
SWIDTH 750 0
DWIDTH 14 0
BBX 12 19 1 0
VVECTOR 7 19
SWIDTH1 0 -1286
DWIDTH1 0 -24
BITMAP 
1C40
36C0
2380
0000
0000
E030
F030
F030
F830
DC30
CC30
CE30
C730
C330
C3B0
C1F0
C0F0
C0F0
C070
ENDCHAR
STARTCHAR ordfeminine
ENCODING 166
SWIDTH 375 0
DWIDTH 7 0
BBX 6 8 1 6
VVECTOR 5 19
SWIDTH1 0 -1286
DWIDTH1 0 -24
BITMAP 
78
CC
3C
6C
CC
7C
00
FC
ENDCHAR
STARTCHAR ordmasculine
ENCODING 167
SWIDTH 375 0
DWIDTH 7 0
BBX 6 8 1 6
VVECTOR 5 19
SWIDTH1 0 -1286
DWIDTH1 0 -24
BITMAP 
78
CC
CC
CC
CC
78
00
FC
ENDCHAR
STARTCHAR questiondown
ENCODING 168
SWIDTH 536 0
DWIDTH 10 0
BBX 9 14 0 0
VVECTOR 4 19
SWIDTH1 0 -1286
DWIDTH1 0 -24
BITMAP 
0C00
0C00
0000
0C00
0C00
1800
3800
7000
6000
C180
C180
6300
7F00
1C00
ENDCHAR
STARTCHAR registered
ENCODING 169
SWIDTH 750 0
DWIDTH 14 0
BBX 13 14 1 0
VVECTOR 8 19
SWIDTH1 0 -1286
DWIDTH1 0 -24
BITMAP 
0F80
38E0
6030
5F90
D8D8
98C8
98C8
9F88
98C8
D8D8
58D0
6030
38E0
0F80
ENDCHAR
STARTCHAR logicalnot
ENCODING 170
SWIDTH 589 0
DWIDTH 11 0
BBX 9 5 1 3
VVECTOR 6 19
SWIDTH1 0 -1286
DWIDTH1 0 -24
BITMAP 
FF80
FF80
0180
0180
0180
ENDCHAR
STARTCHAR onehalf
ENCODING 171
SWIDTH 804 0
DWIDTH 15 0
BBX 12 14 1 0
VVECTOR 7 19
SWIDTH1 0 -1286
DWIDTH1 0 -24
BITMAP 
3030
7060
F060
30C0
3180
3180
3300
06E0
0DB0
0D30
1860
30C0
3180
61F0
ENDCHAR
STARTCHAR onequarter
ENCODING 172
SWIDTH 804 0
DWIDTH 15 0
BBX 12 14 1 0
VVECTOR 7 19
SWIDTH1 0 -1286
DWIDTH1 0 -24
BITMAP 
3030
7060
F060
30C0
3180
3180
3300
0630
0C70
0CB0
1930
31F0
3030
6030
ENDCHAR
STARTCHAR exclamdown
ENCODING 173
SWIDTH 268 0
DWIDTH 5 0
BBX 2 14 1 0
VVECTOR 2 19
SWIDTH1 0 -1286
DWIDTH1 0 -24
BITMAP 
C0
C0
00
00
C0
C0
C0
C0
C0
C0
C0
C0
C0
C0
ENDCHAR
STARTCHAR guillemotleft
ENCODING 174
SWIDTH 536 0
DWIDTH 10 0
BBX 7 5 1 2
VVECTOR 4 19
SWIDTH1 0 -1286
DWIDTH1 0 -24
BITMAP 
22
66
CC
66
22
ENDCHAR
STARTCHAR guillemotright
ENCODING 175
SWIDTH 536 0
DWIDTH 10 0
BBX 7 5 2 2
VVECTOR 6 19
SWIDTH1 0 -1286
DWIDTH1 0 -24
BITMAP 
88
CC
66
CC
88
ENDCHAR
STARTCHAR ltshade
ENCODING 176
SWIDTH 589 0
DWIDTH 11 0
BBX 10 18 0 -2
VVECTOR 5 19
SWIDTH1 0 -1286
DWIDTH1 0 -24
BITMAP 
CCC0
CCC0
0000
0000
CCC0
CCC0
0000
0000
CCC0
CCC0
0000
0000
CCC0
CCC0
0000
0000
CCC0
CCC0
ENDCHAR
STARTCHAR shade
ENCODING 177
SWIDTH 589 0
DWIDTH 11 0
BBX 11 18 0 -2
VVECTOR 6 19
SWIDTH1 0 -1286
DWIDTH1 0 -24
BITMAP 
C300
C300
1860
1860
C300
C300
1860
1860
C300
C300
1860
1860
C300
C300
1860
1860
C300
C300
ENDCHAR
STARTCHAR dkshade
ENCODING 178
SWIDTH 589 0
DWIDTH 11 0
BBX 10 18 0 -2
VVECTOR 5 19
SWIDTH1 0 -1286
DWIDTH1 0 -24
BITMAP 
CCC0
CCC0
3300
3300
CCC0
CCC0
3300
3300
CCC0
CCC0
3300
3300
CCC0
CCC0
3300
3300
CCC0
CCC0
ENDCHAR
STARTCHAR SF110000
ENCODING 179
SWIDTH 589 0
DWIDTH 11 0
BBX 1 24 5 -5
VVECTOR 6 19
SWIDTH1 0 -1286
DWIDTH1 0 -24
BITMAP 
80
80
80
80
80
80
80
80
80
80
80
80
80
80
80
80
80
80
80
80
80
80
80
80
ENDCHAR
STARTCHAR SF090000
ENCODING 180
SWIDTH 589 0
DWIDTH 11 0
BBX 6 24 0 -5
VVECTOR 1 19
SWIDTH1 0 -1286
DWIDTH1 0 -24
BITMAP 
04
04
04
04
04
04
04
04
04
04
04
FC
04
04
04
04
04
04
04
04
04
04
04
04
ENDCHAR
STARTCHAR Aacute
ENCODING 181
SWIDTH 696 0
DWIDTH 13 0
BBX 13 19 0 0
VVECTOR 7 19
SWIDTH1 0 -1286
DWIDTH1 0 -24
BITMAP 
0380
0600
0400
0000
0000
0700
0700
0D80
0D80
18C0
18C0
18C0
3060
3FE0
7FF0
6030
6030
C018
C018
ENDCHAR
STARTCHAR Acircumflex
ENCODING 182
SWIDTH 696 0
DWIDTH 13 0
BBX 13 19 0 0
VVECTOR 7 19
SWIDTH1 0 -1286
DWIDTH1 0 -24
BITMAP 
0700
0D80
18C0
0000
0000
0700
0700
0D80
0D80
18C0
18C0
18C0
3060
3FE0
7FF0
6030
6030
C018
C018
ENDCHAR
STARTCHAR Agrave
ENCODING 183
SWIDTH 696 0
DWIDTH 13 0
BBX 13 19 0 0
VVECTOR 7 19
SWIDTH1 0 -1286
DWIDTH1 0 -24
BITMAP 
0E00
0300
0100
0000
0000
0700
0700
0D80
0D80
18C0
18C0
18C0
3060
3FE0
7FF0
6030
6030
C018
C018
ENDCHAR
STARTCHAR copyright
ENCODING 184
SWIDTH 750 0
DWIDTH 14 0
BBX 13 14 0 0
VVECTOR 6 19
SWIDTH1 0 -1286
DWIDTH1 0 -24
BITMAP 
0F80
38E0
6030
4790
CCD8
9808
9808
9808
9808
CCD8
4790
6030
38E0
0F80
ENDCHAR
STARTCHAR SF230000
ENCODING 185
SWIDTH 589 0
DWIDTH 11 0
BBX 7 24 0 -5
VVECTOR 2 19
SWIDTH1 0 -1286
DWIDTH1 0 -24
BITMAP 
0A
0A
0A
0A
0A
0A
0A
0A
0A
0A
FA
02
FA
0A
0A
0A
0A
0A
0A
0A
0A
0A
0A
0A
ENDCHAR
STARTCHAR SF240000
ENCODING 186
SWIDTH 589 0
DWIDTH 11 0
BBX 3 24 4 -5
VVECTOR 6 19
SWIDTH1 0 -1286
DWIDTH1 0 -24
BITMAP 
A0
A0
A0
A0
A0
A0
A0
A0
A0
A0
A0
A0
A0
A0
A0
A0
A0
A0
A0
A0
A0
A0
A0
A0
ENDCHAR
STARTCHAR SF250000
ENCODING 187
SWIDTH 589 0
DWIDTH 11 0
BBX 7 14 0 -5
VVECTOR 2 19
SWIDTH1 0 -1286
DWIDTH1 0 -24
BITMAP 
FE
02
FA
0A
0A
0A
0A
0A
0A
0A
0A
0A
0A
0A
ENDCHAR
STARTCHAR SF260000
ENCODING 188
SWIDTH 589 0
DWIDTH 11 0
BBX 7 13 0 6
VVECTOR 2 19
SWIDTH1 0 -1286
DWIDTH1 0 -24
BITMAP 
0A
0A
0A
0A
0A
0A
0A
0A
0A
0A
FA
02
FE
ENDCHAR
STARTCHAR cent
ENCODING 189
SWIDTH 536 0
DWIDTH 10 0
BBX 8 14 1 -2
VVECTOR 5 19
SWIDTH1 0 -1286
DWIDTH1 0 -24
BITMAP 
02
02
1E
7F
67
C4
CC
C8
C8
7B
7F
3C
20
20
ENDCHAR
STARTCHAR yen
ENCODING 190
SWIDTH 536 0
DWIDTH 10 0
BBX 10 14 0 0
VVECTOR 5 19
SWIDTH1 0 -1286
DWIDTH1 0 -24
BITMAP 
C0C0
C0C0
6180
6180
3300
7F80
7F80
1E00
0C00
7F80
7F80
0C00
0C00
0C00
ENDCHAR
STARTCHAR SF030000
ENCODING 191
SWIDTH 589 0
DWIDTH 11 0
BBX 6 13 0 -5
VVECTOR 1 19
SWIDTH1 0 -1286
DWIDTH1 0 -24
BITMAP 
FC
04
04
04
04
04
04
04
04
04
04
04
04
ENDCHAR
STARTCHAR SF020000
ENCODING 192
SWIDTH 589 0
DWIDTH 11 0
BBX 6 12 5 7
VVECTOR 11 19
SWIDTH1 0 -1286
DWIDTH1 0 -24
BITMAP 
80
80
80
80
80
80
80
80
80
80
80
FC
ENDCHAR
STARTCHAR SF070000
ENCODING 193
SWIDTH 589 0
DWIDTH 11 0
BBX 11 12 0 7
VVECTOR 6 19
SWIDTH1 0 -1286
DWIDTH1 0 -24
BITMAP 
0400
0400
0400
0400
0400
0400
0400
0400
0400
0400
0400
FFE0
ENDCHAR
STARTCHAR SF060000
ENCODING 194
SWIDTH 589 0
DWIDTH 11 0
BBX 11 13 0 -5
VVECTOR 6 19
SWIDTH1 0 -1286
DWIDTH1 0 -24
BITMAP 
FFE0
0400
0400
0400
0400
0400
0400
0400
0400
0400
0400
0400
0400
ENDCHAR
STARTCHAR SF080000
ENCODING 195
SWIDTH 589 0
DWIDTH 11 0
BBX 6 24 5 -5
VVECTOR 11 19
SWIDTH1 0 -1286
DWIDTH1 0 -24
BITMAP 
80
80
80
80
80
80
80
80
80
80
80
FC
80
80
80
80
80
80
80
80
80
80
80
80
ENDCHAR
STARTCHAR SF100000
ENCODING 196
SWIDTH 589 0
DWIDTH 11 0
BBX 11 1 0 7
VVECTOR 6 19
SWIDTH1 0 -1286
DWIDTH1 0 -24
BITMAP 
FFE0
ENDCHAR
STARTCHAR SF050000
ENCODING 197
SWIDTH 589 0
DWIDTH 11 0
BBX 11 24 0 -5
VVECTOR 6 19
SWIDTH1 0 -1286
DWIDTH1 0 -24
BITMAP 
0400
0400
0400
0400
0400
0400
0400
0400
0400
0400
0400
FFE0
0400
0400
0400
0400
0400
0400
0400
0400
0400
0400
0400
0400
ENDCHAR
STARTCHAR atilde
ENCODING 198
SWIDTH 536 0
DWIDTH 10 0
BBX 9 14 1 0
VVECTOR 6 19
SWIDTH1 0 -1286
DWIDTH1 0 -24
BITMAP 
7100
DB00
8E00
0000
3C00
7E00
E700
0300
1F00
7300
C300
C700
FF80
7980
ENDCHAR
STARTCHAR Atilde
ENCODING 199
SWIDTH 696 0
DWIDTH 13 0
BBX 13 19 0 0
VVECTOR 7 19
SWIDTH1 0 -1286
DWIDTH1 0 -24
BITMAP 
1C40
36C0
2380
0000
0000
0700
0700
0D80
0D80
18C0
18C0
18C0
3060
3FE0
7FF0
6030
6030
C018
C018
ENDCHAR
STARTCHAR SF380000
ENCODING 200
SWIDTH 589 0
DWIDTH 11 0
BBX 7 13 4 6
VVECTOR 10 19
SWIDTH1 0 -1286
DWIDTH1 0 -24
BITMAP 
A0
A0
A0
A0
A0
A0
A0
A0
A0
A0
BE
80
FE
ENDCHAR
STARTCHAR SF390000
ENCODING 201
SWIDTH 589 0
DWIDTH 11 0
BBX 7 14 4 -5
VVECTOR 10 19
SWIDTH1 0 -1286
DWIDTH1 0 -24
BITMAP 
FE
80
BE
A0
A0
A0
A0
A0
A0
A0
A0
A0
A0
A0
ENDCHAR
STARTCHAR SF400000
ENCODING 202
SWIDTH 589 0
DWIDTH 11 0
BBX 11 13 0 6
VVECTOR 6 19
SWIDTH1 0 -1286
DWIDTH1 0 -24
BITMAP 
0A00
0A00
0A00
0A00
0A00
0A00
0A00
0A00
0A00
0A00
FBE0
0000
FFE0
ENDCHAR
STARTCHAR SF410000
ENCODING 203
SWIDTH 589 0
DWIDTH 11 0
BBX 11 14 0 -5
VVECTOR 6 19
SWIDTH1 0 -1286
DWIDTH1 0 -24
BITMAP 
FFE0
0000
FBE0
0A00
0A00
0A00
0A00
0A00
0A00
0A00
0A00
0A00
0A00
0A00
ENDCHAR
STARTCHAR SF420000
ENCODING 204
SWIDTH 589 0
DWIDTH 11 0
BBX 7 24 4 -5
VVECTOR 10 19
SWIDTH1 0 -1286
DWIDTH1 0 -24
BITMAP 
A0
A0
A0
A0
A0
A0
A0
A0
A0
A0
BE
80
BE
A0
A0
A0
A0
A0
A0
A0
A0
A0
A0
A0
ENDCHAR
STARTCHAR SF430000
ENCODING 205
SWIDTH 589 0
DWIDTH 11 0
BBX 11 3 0 6
VVECTOR 6 19
SWIDTH1 0 -1286
DWIDTH1 0 -24
BITMAP 
FFE0
0000
FFE0
ENDCHAR
STARTCHAR SF440000
ENCODING 206
SWIDTH 589 0
DWIDTH 11 0
BBX 11 24 0 -5
VVECTOR 6 19
SWIDTH1 0 -1286
DWIDTH1 0 -24
BITMAP 
0A00
0A00
0A00
0A00
0A00
0A00
0A00
0A00
0A00
0A00
FBE0
0000
FBE0
0A00
0A00
0A00
0A00
0A00
0A00
0A00
0A00
0A00
0A00
0A00
ENDCHAR
STARTCHAR currency
ENCODING 207
SWIDTH 536 0
DWIDTH 10 0
BBX 9 9 1 4
VVECTOR 6 19
SWIDTH1 0 -1286
DWIDTH1 0 -24
BITMAP 
C180
FF80
7F00
6300
6300
6300
7F00
FF80
C180
ENDCHAR
STARTCHAR eth
ENCODING 208
SWIDTH 589 0
DWIDTH 11 0
BBX 9 14 1 0
VVECTOR 6 19
SWIDTH1 0 -1286
DWIDTH1 0 -24
BITMAP 
EC00
3800
6C00
0600
1F00
7F00
6380
C180
C180
C180
C180
6300
7F00
1C00
ENDCHAR
STARTCHAR Eth
ENCODING 209
SWIDTH 696 0
DWIDTH 13 0
BBX 12 14 0 0
VVECTOR 6 19
SWIDTH1 0 -1286
DWIDTH1 0 -24
BITMAP 
7F00
7FC0
60E0
6060
6030
6030
F830
F830
6030
6030
6060
60E0
7FC0
7F00
ENDCHAR
STARTCHAR Ecircumflex
ENCODING 210
SWIDTH 696 0
DWIDTH 13 0
BBX 11 19 1 0
VVECTOR 7 19
SWIDTH1 0 -1286
DWIDTH1 0 -24
BITMAP 
0E00
1B00
3180
0000
0000
FFE0
FFE0
C000
C000
C000
C000
FFC0
FFC0
C000
C000
C000
C000
FFE0
FFE0
ENDCHAR
STARTCHAR Edieresis
ENCODING 211
SWIDTH 696 0
DWIDTH 13 0
BBX 11 19 1 0
VVECTOR 7 19
SWIDTH1 0 -1286
DWIDTH1 0 -24
BITMAP 
6180
6180
0000
0000
0000
FFE0
FFE0
C000
C000
C000
C000
FFC0
FFC0
C000
C000
C000
C000
FFE0
FFE0
ENDCHAR
STARTCHAR Egrave
ENCODING 212
SWIDTH 696 0
DWIDTH 13 0
BBX 11 19 1 0
VVECTOR 7 19
SWIDTH1 0 -1286
DWIDTH1 0 -24
BITMAP 
3800
0C00
0400
0000
0000
FFE0
FFE0
C000
C000
C000
C000
FFC0
FFC0
C000
C000
C000
C000
FFE0
FFE0
ENDCHAR
STARTCHAR Euro
ENCODING 213
SWIDTH 214 0
DWIDTH 4 0
BBX 2 10 1 0
VVECTOR 2 19
SWIDTH1 0 -1286
DWIDTH1 0 -24
BITMAP 
C0
C0
C0
C0
C0
C0
C0
C0
C0
C0
ENDCHAR
STARTCHAR Iacute
ENCODING 214
SWIDTH 214 0
DWIDTH 4 0
BBX 4 19 0 0
VVECTOR 2 19
SWIDTH1 0 -1286
DWIDTH1 0 -24
BITMAP 
70
C0
80
00
00
60
60
60
60
60
60
60
60
60
60
60
60
60
60
ENDCHAR
STARTCHAR Icircumflex
ENCODING 215
SWIDTH 214 0
DWIDTH 4 0
BBX 4 19 0 0
VVECTOR 2 19
SWIDTH1 0 -1286
DWIDTH1 0 -24
BITMAP 
60
90
00
00
00
60
60
60
60
60
60
60
60
60
60
60
60
60
60
ENDCHAR
STARTCHAR Idieresis
ENCODING 216
SWIDTH 321 0
DWIDTH 6 0
BBX 6 19 0 0
VVECTOR 3 19
SWIDTH1 0 -1286
DWIDTH1 0 -24
BITMAP 
CC
CC
00
00
00
30
30
30
30
30
30
30
30
30
30
30
30
30
30
ENDCHAR
STARTCHAR SF040000
ENCODING 217
SWIDTH 589 0
DWIDTH 11 0
BBX 6 12 0 7
VVECTOR 1 19
SWIDTH1 0 -1286
DWIDTH1 0 -24
BITMAP 
04
04
04
04
04
04
04
04
04
04
04
FC
ENDCHAR
STARTCHAR SF010000
ENCODING 218
SWIDTH 589 0
DWIDTH 11 0
BBX 6 13 5 -5
VVECTOR 11 19
SWIDTH1 0 -1286
DWIDTH1 0 -24
BITMAP 
FC
80
80
80
80
80
80
80
80
80
80
80
80
ENDCHAR
STARTCHAR block
ENCODING 219
SWIDTH 589 0
DWIDTH 11 0
BBX 11 24 0 -5
VVECTOR 6 19
SWIDTH1 0 -1286
DWIDTH1 0 -24
BITMAP 
FFE0
FFE0
FFE0
FFE0
FFE0
FFE0
FFE0
FFE0
FFE0
FFE0
FFE0
FFE0
FFE0
FFE0
FFE0
FFE0
FFE0
FFE0
FFE0
FFE0
FFE0
FFE0
FFE0
FFE0
ENDCHAR
STARTCHAR dnblock
ENCODING 220
SWIDTH 589 0
DWIDTH 11 0
BBX 11 13 0 -5
VVECTOR 6 19
SWIDTH1 0 -1286
DWIDTH1 0 -24
BITMAP 
FFE0
FFE0
FFE0
FFE0
FFE0
FFE0
FFE0
FFE0
FFE0
FFE0
FFE0
FFE0
FFE0
ENDCHAR
STARTCHAR brokenbar
ENCODING 221
SWIDTH 214 0
DWIDTH 4 0
BBX 2 18 1 -4
VVECTOR 2 19
SWIDTH1 0 -1286
DWIDTH1 0 -24
BITMAP 
C0
C0
C0
C0
C0
C0
C0
C0
00
00
C0
C0
C0
C0
C0
C0
C0
C0
ENDCHAR
STARTCHAR Igrave
ENCODING 222
SWIDTH 214 0
DWIDTH 4 0
BBX 4 19 0 0
VVECTOR 2 19
SWIDTH1 0 -1286
DWIDTH1 0 -24
BITMAP 
E0
30
10
00
00
60
60
60
60
60
60
60
60
60
60
60
60
60
60
ENDCHAR
STARTCHAR upblock
ENCODING 223
SWIDTH 589 0
DWIDTH 11 0
BBX 11 12 0 7
VVECTOR 6 19
SWIDTH1 0 -1286
DWIDTH1 0 -24
BITMAP 
FFE0
FFE0
FFE0
FFE0
FFE0
FFE0
FFE0
FFE0
FFE0
FFE0
FFE0
FFE0
ENDCHAR
STARTCHAR Oacute
ENCODING 224
SWIDTH 804 0
DWIDTH 15 0
BBX 13 19 1 0
VVECTOR 8 19
SWIDTH1 0 -1286
DWIDTH1 0 -24
BITMAP 
0380
0600
0400
0000
0000
0F80
3FE0
7070
6030
C018
C018
C018
C018
C018
C018
6030
7070
3FE0
0F80
ENDCHAR
STARTCHAR germandbls
ENCODING 225
SWIDTH 589 0
DWIDTH 11 0
BBX 9 14 1 0
VVECTOR 6 19
SWIDTH1 0 -1286
DWIDTH1 0 -24
BITMAP 
3C00
7E00
C700
C300
C300
C700
DE00
DF00
C380
C180
C180
C380
DF00
DE00
ENDCHAR
STARTCHAR Ocircumflex
ENCODING 226
SWIDTH 804 0
DWIDTH 15 0
BBX 13 19 1 0
VVECTOR 8 19
SWIDTH1 0 -1286
DWIDTH1 0 -24
BITMAP 
0700
0D80
18C0
0000
0000
0F80
3FE0
7070
6030
C018
C018
C018
C018
C018
C018
6030
7070
3FE0
0F80
ENDCHAR
STARTCHAR Ograve
ENCODING 227
SWIDTH 804 0
DWIDTH 15 0
BBX 13 19 1 0
VVECTOR 8 19
SWIDTH1 0 -1286
DWIDTH1 0 -24
BITMAP 
0E00
0300
0100
0000
0000
0F80
3FE0
7070
6030
C018
C018
C018
C018
C018
C018
6030
7070
3FE0
0F80
ENDCHAR
STARTCHAR otilde
ENCODING 228
SWIDTH 589 0
DWIDTH 11 0
BBX 9 14 1 0
VVECTOR 6 19
SWIDTH1 0 -1286
DWIDTH1 0 -24
BITMAP 
7100
DB00
8E00
0000
1C00
7F00
6300
C180
C180
C180
C180
6300
7F00
1C00
ENDCHAR
STARTCHAR Otilde
ENCODING 229
SWIDTH 804 0
DWIDTH 15 0
BBX 13 19 1 0
VVECTOR 8 19
SWIDTH1 0 -1286
DWIDTH1 0 -24
BITMAP 
1C40
36C0
2380
0000
0000
0F80
3FE0
7070
6030
C018
C018
C018
C018
C018
C018
6030
7070
3FE0
0F80
ENDCHAR
STARTCHAR mu
ENCODING 230
SWIDTH 482 0
DWIDTH 9 0
BBX 8 14 1 -4
VVECTOR 6 19
SWIDTH1 0 -1286
DWIDTH1 0 -24
BITMAP 
C3
C3
C3
C3
C3
C3
C3
E7
FF
DB
C0
C0
C0
C0
ENDCHAR
STARTCHAR thorn
ENCODING 231
SWIDTH 589 0
DWIDTH 11 0
BBX 9 18 1 -4
VVECTOR 6 19
SWIDTH1 0 -1286
DWIDTH1 0 -24
BITMAP 
C000
C000
C000
C000
DC00
FF00
E300
C180
C180
C180
C180
E300
FF00
DC00
C000
C000
C000
C000
ENDCHAR
STARTCHAR Thorn
ENCODING 232
SWIDTH 696 0
DWIDTH 13 0
BBX 11 14 1 0
VVECTOR 7 19
SWIDTH1 0 -1286
DWIDTH1 0 -24
BITMAP 
C000
C000
C000
FF00
FFC0
C0C0
C060
C060
C0C0
FFC0
FF00
C000
C000
C000
ENDCHAR
STARTCHAR Uacute
ENCODING 233
SWIDTH 696 0
DWIDTH 13 0
BBX 11 19 1 0
VVECTOR 7 19
SWIDTH1 0 -1286
DWIDTH1 0 -24
BITMAP 
0700
0C00
0800
0000
0000
C060
C060
C060
C060
C060
C060
C060
C060
C060
C060
60C0
71C0
3F80
0E00
ENDCHAR
STARTCHAR Ucircumflex
ENCODING 234
SWIDTH 696 0
DWIDTH 13 0
BBX 11 19 1 0
VVECTOR 7 19
SWIDTH1 0 -1286
DWIDTH1 0 -24
BITMAP 
0E00
1B00
3180
0000
0000
C060
C060
C060
C060
C060
C060
C060
C060
C060
C060
60C0
71C0
3F80
0E00
ENDCHAR
STARTCHAR Ugrave
ENCODING 235
SWIDTH 696 0
DWIDTH 13 0
BBX 11 19 1 0
VVECTOR 7 19
SWIDTH1 0 -1286
DWIDTH1 0 -24
BITMAP 
1C00
0600
0200
0000
0000
C060
C060
C060
C060
C060
C060
C060
C060
C060
C060
60C0
71C0
3F80
0E00
ENDCHAR
STARTCHAR yacute
ENCODING 236
SWIDTH 482 0
DWIDTH 9 0
BBX 9 18 0 -4
VVECTOR 5 19
SWIDTH1 0 -1286
DWIDTH1 0 -24
BITMAP 
0E00
1800
1000
0000
C180
C180
C180
6300
6300
3600
3600
3E00
1C00
1C00
1800
1800
7000
6000
ENDCHAR
STARTCHAR Yacute
ENCODING 237
SWIDTH 643 0
DWIDTH 12 0
BBX 12 19 0 0
VVECTOR 6 19
SWIDTH1 0 -1286
DWIDTH1 0 -24
BITMAP 
0700
0C00
0800
0000
0000
C030
E070
6060
30C0
39C0
1980
0F00
0F00
0600
0600
0600
0600
0600
0600
ENDCHAR
STARTCHAR macron
ENCODING 238
SWIDTH 536 0
DWIDTH 10 0
BBX 10 2 0 15
VVECTOR 5 19
SWIDTH1 0 -1286
DWIDTH1 0 -24
BITMAP 
FFC0
FFC0
ENDCHAR
STARTCHAR acute
ENCODING 239
SWIDTH 321 0
DWIDTH 6 0
BBX 4 3 1 11
VVECTOR 3 19
SWIDTH1 0 -1286
DWIDTH1 0 -24
BITMAP 
70
C0
80
ENDCHAR
STARTCHAR uni00AD
ENCODING 240
SWIDTH 321 0
DWIDTH 6 0
BBX 6 2 0 4
VVECTOR 3 19
SWIDTH1 0 -1286
DWIDTH1 0 -24
BITMAP 
FC
FC
ENDCHAR
STARTCHAR plusminus
ENCODING 241
SWIDTH 589 0
DWIDTH 11 0
BBX 8 11 2 0
VVECTOR 7 19
SWIDTH1 0 -1286
DWIDTH1 0 -24
BITMAP 
18
18
18
FF
FF
18
18
18
00
FF
FF
ENDCHAR
STARTCHAR underscoredbl
ENCODING 242
SWIDTH 589 0
DWIDTH 11 0
BBX 11 4 0 -5
VVECTOR 6 19
SWIDTH1 0 -1286
DWIDTH1 0 -24
BITMAP 
FFE0
0000
FFE0
FFE0
ENDCHAR
STARTCHAR threequarters
ENCODING 243
SWIDTH 804 0
DWIDTH 15 0
BBX 12 14 1 0
VVECTOR 7 19
SWIDTH1 0 -1286
DWIDTH1 0 -24
BITMAP 
7030
D860
1860
70C0
1980
D980
7300
0630
0C70
0CB0
1930
31F0
3030
6030
ENDCHAR
STARTCHAR paragraph
ENCODING 244
SWIDTH 589 0
DWIDTH 11 0
BBX 9 15 1 -2
VVECTOR 6 19
SWIDTH1 0 -1286
DWIDTH1 0 -24
BITMAP 
7F80
FF80
FB00
FB00
FB00
FB00
7B00
1B00
1B00
1B00
1B00
1B00
1B00
1B00
1B00
ENDCHAR
STARTCHAR section
ENCODING 245
SWIDTH 536 0
DWIDTH 10 0
BBX 8 15 1 -1
VVECTOR 5 19
SWIDTH1 0 -1286
DWIDTH1 0 -24
BITMAP 
3C
7E
66
60
F0
D8
CC
66
33
1B
0F
06
66
7E
3C
ENDCHAR
STARTCHAR divide
ENCODING 246
SWIDTH 643 0
DWIDTH 12 0
BBX 8 10 2 1
VVECTOR 6 19
SWIDTH1 0 -1286
DWIDTH1 0 -24
BITMAP 
18
18
00
00
FF
FF
00
00
18
18
ENDCHAR
STARTCHAR cedilla
ENCODING 247
SWIDTH 321 0
DWIDTH 6 0
BBX 5 4 0 -4
VVECTOR 2 19
SWIDTH1 0 -1286
DWIDTH1 0 -24
BITMAP 
20
38
18
F0
ENDCHAR
STARTCHAR degree
ENCODING 248
SWIDTH 321 0
DWIDTH 6 0
BBX 5 5 1 9
VVECTOR 4 19
SWIDTH1 0 -1286
DWIDTH1 0 -24
BITMAP 
70
D8
88
D8
70
ENDCHAR
STARTCHAR dieresis
ENCODING 249
SWIDTH 321 0
DWIDTH 6 0
BBX 6 2 0 12
VVECTOR 3 19
SWIDTH1 0 -1286
DWIDTH1 0 -24
BITMAP 
CC
CC
ENDCHAR
STARTCHAR periodcentered
ENCODING 250
SWIDTH 268 0
DWIDTH 5 0
BBX 2 2 2 7
VVECTOR 4 19
SWIDTH1 0 -1286
DWIDTH1 0 -24
BITMAP 
C0
C0
ENDCHAR
STARTCHAR uni00B9
ENCODING 251
SWIDTH 268 0
DWIDTH 5 0
BBX 4 7 0 7
VVECTOR 2 19
SWIDTH1 0 -1286
DWIDTH1 0 -24
BITMAP 
30
70
F0
30
30
30
30
ENDCHAR
STARTCHAR uni00B3
ENCODING 252
SWIDTH 268 0
DWIDTH 5 0
BBX 5 7 0 7
VVECTOR 3 19
SWIDTH1 0 -1286
DWIDTH1 0 -24
BITMAP 
70
D8
18
70
18
D8
70
ENDCHAR
STARTCHAR uni00B2
ENCODING 253
SWIDTH 268 0
DWIDTH 5 0
BBX 5 7 0 7
VVECTOR 3 19
SWIDTH1 0 -1286
DWIDTH1 0 -24
BITMAP 
70
D8
98
30
60
C0
F8
ENDCHAR
STARTCHAR filledbox
ENCODING 254
SWIDTH 696 0
DWIDTH 13 0
BBX 13 13 0 0
VVECTOR 7 19
SWIDTH1 0 -1286
DWIDTH1 0 -24
BITMAP 
FFF8
FFF8
FFF8
FFF8
FFF8
FFF8
FFF8
FFF8
FFF8
FFF8
FFF8
FFF8
FFF8
ENDCHAR
STARTCHAR uni00A0
ENCODING 255
SWIDTH 268 0
DWIDTH 5 0
BBX 0 0 5 19
VVECTOR 8 19
SWIDTH1 0 -1286
DWIDTH1 0 -24
BITMAP 
ENDCHAR
STARTCHAR peseta
ENCODING 256
SWIDTH 1125 0
DWIDTH 21 0
BBX 17 13 2 0
VVECTOR 11 19
SWIDTH1 0 -1286
DWIDTH1 0 -24
BITMAP 
FC0000
FE0000
C70000
C30000
C30000
C76000
FE6380
FCF780
C0F600
C06300
C06180
C07780
C03700
ENDCHAR
STARTCHAR revlogicalnot
ENCODING 257
SWIDTH 589 0
DWIDTH 11 0
BBX 9 6 1 0
VVECTOR 6 19
SWIDTH1 0 -1286
DWIDTH1 0 -24
BITMAP 
FF80
FF80
C000
C000
C000
C000
ENDCHAR
STARTCHAR SF190000
ENCODING 258
SWIDTH 589 0
DWIDTH 11 0
BBX 6 24 0 -5
VVECTOR 1 19
SWIDTH1 0 -1286
DWIDTH1 0 -24
BITMAP 
04
04
04
04
04
04
04
04
04
04
FC
04
FC
04
04
04
04
04
04
04
04
04
04
04
ENDCHAR
STARTCHAR SF200000
ENCODING 259
SWIDTH 589 0
DWIDTH 11 0
BBX 7 24 0 -5
VVECTOR 2 19
SWIDTH1 0 -1286
DWIDTH1 0 -24
BITMAP 
0A
0A
0A
0A
0A
0A
0A
0A
0A
0A
0A
FA
0A
0A
0A
0A
0A
0A
0A
0A
0A
0A
0A
0A
ENDCHAR
STARTCHAR SF210000
ENCODING 260
SWIDTH 589 0
DWIDTH 11 0
BBX 7 13 0 -5
VVECTOR 2 19
SWIDTH1 0 -1286
DWIDTH1 0 -24
BITMAP 
FE
0A
0A
0A
0A
0A
0A
0A
0A
0A
0A
0A
0A
ENDCHAR
STARTCHAR SF220000
ENCODING 261
SWIDTH 589 0
DWIDTH 11 0
BBX 6 14 0 -5
VVECTOR 1 19
SWIDTH1 0 -1286
DWIDTH1 0 -24
BITMAP 
FC
04
FC
04
04
04
04
04
04
04
04
04
04
04
ENDCHAR
STARTCHAR SF270000
ENCODING 262
SWIDTH 589 0
DWIDTH 11 0
BBX 7 12 0 7
VVECTOR 2 19
SWIDTH1 0 -1286
DWIDTH1 0 -24
BITMAP 
0A
0A
0A
0A
0A
0A
0A
0A
0A
0A
0A
FE
ENDCHAR
STARTCHAR SF280000
ENCODING 263
SWIDTH 589 0
DWIDTH 11 0
BBX 6 13 0 6
VVECTOR 1 19
SWIDTH1 0 -1286
DWIDTH1 0 -24
BITMAP 
04
04
04
04
04
04
04
04
04
04
FC
04
FC
ENDCHAR
STARTCHAR SF360000
ENCODING 264
SWIDTH 589 0
DWIDTH 11 0
BBX 6 24 5 -5
VVECTOR 11 19
SWIDTH1 0 -1286
DWIDTH1 0 -24
BITMAP 
80
80
80
80
80
80
80
80
80
80
FC
80
FC
80
80
80
80
80
80
80
80
80
80
80
ENDCHAR
STARTCHAR SF370000
ENCODING 265
SWIDTH 589 0
DWIDTH 11 0
BBX 7 24 4 -5
VVECTOR 10 19
SWIDTH1 0 -1286
DWIDTH1 0 -24
BITMAP 
A0
A0
A0
A0
A0
A0
A0
A0
A0
A0
A0
BE
A0
A0
A0
A0
A0
A0
A0
A0
A0
A0
A0
A0
ENDCHAR
STARTCHAR SF450000
ENCODING 266
SWIDTH 589 0
DWIDTH 11 0
BBX 11 13 0 6
VVECTOR 6 19
SWIDTH1 0 -1286
DWIDTH1 0 -24
BITMAP 
0400
0400
0400
0400
0400
0400
0400
0400
0400
0400
FFE0
0000
FFE0
ENDCHAR
STARTCHAR SF460000
ENCODING 267
SWIDTH 589 0
DWIDTH 11 0
BBX 11 12 0 7
VVECTOR 6 19
SWIDTH1 0 -1286
DWIDTH1 0 -24
BITMAP 
0A00
0A00
0A00
0A00
0A00
0A00
0A00
0A00
0A00
0A00
0A00
FFE0
ENDCHAR
STARTCHAR SF470000
ENCODING 268
SWIDTH 589 0
DWIDTH 11 0
BBX 11 14 0 -5
VVECTOR 6 19
SWIDTH1 0 -1286
DWIDTH1 0 -24
BITMAP 
FFE0
0000
FFE0
0400
0400
0400
0400
0400
0400
0400
0400
0400
0400
0400
ENDCHAR
STARTCHAR SF480000
ENCODING 269
SWIDTH 589 0
DWIDTH 11 0
BBX 11 13 0 -5
VVECTOR 6 19
SWIDTH1 0 -1286
DWIDTH1 0 -24
BITMAP 
FFE0
0A00
0A00
0A00
0A00
0A00
0A00
0A00
0A00
0A00
0A00
0A00
0A00
ENDCHAR
STARTCHAR SF490000
ENCODING 270
SWIDTH 589 0
DWIDTH 11 0
BBX 7 12 4 7
VVECTOR 10 19
SWIDTH1 0 -1286
DWIDTH1 0 -24
BITMAP 
A0
A0
A0
A0
A0
A0
A0
A0
A0
A0
A0
FE
ENDCHAR
STARTCHAR SF500000
ENCODING 271
SWIDTH 589 0
DWIDTH 11 0
BBX 6 13 5 6
VVECTOR 11 19
SWIDTH1 0 -1286
DWIDTH1 0 -24
BITMAP 
80
80
80
80
80
80
80
80
80
80
FC
80
FC
ENDCHAR
STARTCHAR SF510000
ENCODING 272
SWIDTH 589 0
DWIDTH 11 0
BBX 6 14 5 -5
VVECTOR 11 19
SWIDTH1 0 -1286
DWIDTH1 0 -24
BITMAP 
FC
80
FC
80
80
80
80
80
80
80
80
80
80
80
ENDCHAR
STARTCHAR SF520000
ENCODING 273
SWIDTH 589 0
DWIDTH 11 0
BBX 7 13 4 -5
VVECTOR 10 19
SWIDTH1 0 -1286
DWIDTH1 0 -24
BITMAP 
FE
A0
A0
A0
A0
A0
A0
A0
A0
A0
A0
A0
A0
ENDCHAR
STARTCHAR SF530000
ENCODING 274
SWIDTH 589 0
DWIDTH 11 0
BBX 11 24 0 -5
VVECTOR 6 19
SWIDTH1 0 -1286
DWIDTH1 0 -24
BITMAP 
0A00
0A00
0A00
0A00
0A00
0A00
0A00
0A00
0A00
0A00
0A00
FFE0
0A00
0A00
0A00
0A00
0A00
0A00
0A00
0A00
0A00
0A00
0A00
0A00
ENDCHAR
STARTCHAR SF540000
ENCODING 275
SWIDTH 589 0
DWIDTH 11 0
BBX 11 24 0 -5
VVECTOR 6 19
SWIDTH1 0 -1286
DWIDTH1 0 -24
BITMAP 
0400
0400
0400
0400
0400
0400
0400
0400
0400
0400
FFE0
0400
FFE0
0400
0400
0400
0400
0400
0400
0400
0400
0400
0400
0400
ENDCHAR
STARTCHAR lfblock
ENCODING 276
SWIDTH 589 0
DWIDTH 11 0
BBX 6 24 0 -5
VVECTOR 1 19
SWIDTH1 0 -1286
DWIDTH1 0 -24
BITMAP 
FC
FC
FC
FC
FC
FC
FC
FC
FC
FC
FC
FC
FC
FC
FC
FC
FC
FC
FC
FC
FC
FC
FC
FC
ENDCHAR
STARTCHAR rtblock
ENCODING 277
SWIDTH 589 0
DWIDTH 11 0
BBX 6 24 5 -5
VVECTOR 11 19
SWIDTH1 0 -1286
DWIDTH1 0 -24
BITMAP 
FC
FC
FC
FC
FC
FC
FC
FC
FC
FC
FC
FC
FC
FC
FC
FC
FC
FC
FC
FC
FC
FC
FC
FC
ENDCHAR
STARTCHAR alpha
ENCODING 278
SWIDTH 696 0
DWIDTH 13 0
BBX 11 10 1 0
VVECTOR 7 19
SWIDTH1 0 -1286
DWIDTH1 0 -24
BITMAP 
3C60
7E60
E7C0
C3C0
C180
C180
C3C0
E6C0
7E60
3C60
ENDCHAR
STARTCHAR Gamma
ENCODING 279
SWIDTH 536 0
DWIDTH 10 0
BBX 8 13 2 0
VVECTOR 7 19
SWIDTH1 0 -1286
DWIDTH1 0 -24
BITMAP 
FF
FF
C0
C0
C0
C0
C0
C0
C0
C0
C0
C0
C0
ENDCHAR
STARTCHAR pi
ENCODING 280
SWIDTH 589 0
DWIDTH 11 0
BBX 9 10 1 0
VVECTOR 6 19
SWIDTH1 0 -1286
DWIDTH1 0 -24
BITMAP 
FF80
FF80
6300
6300
6300
6300
6300
6300
6300
6300
ENDCHAR
STARTCHAR Sigma
ENCODING 281
SWIDTH 643 0
DWIDTH 12 0
BBX 10 13 1 0
VVECTOR 6 19
SWIDTH1 0 -1286
DWIDTH1 0 -24
BITMAP 
FFC0
FFC0
7000
3800
1C00
0E00
0700
0E00
1C00
3800
7000
FFC0
FFC0
ENDCHAR
STARTCHAR sigma
ENCODING 282
SWIDTH 589 0
DWIDTH 11 0
BBX 10 10 1 0
VVECTOR 7 19
SWIDTH1 0 -1286
DWIDTH1 0 -24
BITMAP 
3FC0
7FC0
E300
C180
C180
C180
C180
E380
7F00
3E00
ENDCHAR
STARTCHAR tau
ENCODING 283
SWIDTH 429 0
DWIDTH 8 0
BBX 8 10 0 0
VVECTOR 4 19
SWIDTH1 0 -1286
DWIDTH1 0 -24
BITMAP 
FF
FF
18
18
18
18
18
18
18
18
ENDCHAR
STARTCHAR Phi
ENCODING 284
SWIDTH 750 0
DWIDTH 14 0
BBX 12 13 1 0
VVECTOR 7 19
SWIDTH1 0 -1286
DWIDTH1 0 -24
BITMAP 
0600
0600
3FC0
7FE0
E670
C630
C630
C630
E670
7FE0
3FC0
0600
0600
ENDCHAR
STARTCHAR Theta
ENCODING 285
SWIDTH 804 0
DWIDTH 15 0
BBX 13 13 1 0
VVECTOR 8 19
SWIDTH1 0 -1286
DWIDTH1 0 -24
BITMAP 
0F80
3FE0
7070
6030
C018
CF98
CF98
C018
C018
6030
7070
3FE0
0F80
ENDCHAR
STARTCHAR uni03A9
ENCODING 286
SWIDTH 804 0
DWIDTH 15 0
BBX 13 13 1 0
VVECTOR 8 19
SWIDTH1 0 -1286
DWIDTH1 0 -24
BITMAP 
0F80
3FE0
7070
6030
C018
C018
C018
E038
78F0
18C0
18C0
F8F8
F8F8
ENDCHAR
STARTCHAR delta
ENCODING 287
SWIDTH 589 0
DWIDTH 11 0
BBX 9 13 1 0
VVECTOR 6 19
SWIDTH1 0 -1286
DWIDTH1 0 -24
BITMAP 
7F00
7F00
3800
1C00
3E00
7F00
E380
C180
C180
C180
E380
7F00
3E00
ENDCHAR
STARTCHAR infinity
ENCODING 288
SWIDTH 804 0
DWIDTH 15 0
BBX 13 6 1 3
VVECTOR 8 19
SWIDTH1 0 -1286
DWIDTH1 0 -24
BITMAP 
78F0
FDF8
C718
C718
FDF8
78F0
ENDCHAR
STARTCHAR phi1
ENCODING 289
SWIDTH 643 0
DWIDTH 12 0
BBX 10 17 1 -4
VVECTOR 6 19
SWIDTH1 0 -1286
DWIDTH1 0 -24
BITMAP 
0C00
0C00
0C00
3F00
7F80
EDC0
CCC0
CCC0
CCC0
CCC0
EDC0
7F80
3F00
0C00
0C00
0C00
0C00
ENDCHAR
STARTCHAR epsilon
ENCODING 290
SWIDTH 536 0
DWIDTH 10 0
BBX 8 10 1 0
VVECTOR 5 19
SWIDTH1 0 -1286
DWIDTH1 0 -24
BITMAP 
3E
7F
E3
C0
7C
FC
C0
E3
7F
3E
ENDCHAR
STARTCHAR intersection
ENCODING 291
SWIDTH 643 0
DWIDTH 12 0
BBX 10 13 1 0
VVECTOR 6 19
SWIDTH1 0 -1286
DWIDTH1 0 -24
BITMAP 
1E00
7F80
6180
C0C0
C0C0
C0C0
C0C0
C0C0
C0C0
C0C0
C0C0
C0C0
C0C0
ENDCHAR
STARTCHAR equivalence
ENCODING 292
SWIDTH 643 0
DWIDTH 12 0
BBX 8 10 2 1
VVECTOR 6 19
SWIDTH1 0 -1286
DWIDTH1 0 -24
BITMAP 
FF
FF
00
00
FF
FF
00
00
FF
FF
ENDCHAR
STARTCHAR greaterequal
ENCODING 293
SWIDTH 643 0
DWIDTH 12 0
BBX 9 12 2 0
VVECTOR 7 19
SWIDTH1 0 -1286
DWIDTH1 0 -24
BITMAP 
C000
F000
7C00
1F00
0780
1F00
7C00
F000
C000
0000
FF80
FF80
ENDCHAR
STARTCHAR lessequal
ENCODING 294
SWIDTH 643 0
DWIDTH 12 0
BBX 9 12 1 0
VVECTOR 5 19
SWIDTH1 0 -1286
DWIDTH1 0 -24
BITMAP 
0180
0780
1F00
7C00
F000
7C00
1F00
0780
0180
0000
FF80
FF80
ENDCHAR
STARTCHAR integraltp
ENCODING 295
SWIDTH 750 0
DWIDTH 14 0
BBX 7 18 6 -4
VVECTOR 12 19
SWIDTH1 0 -1286
DWIDTH1 0 -24
BITMAP 
78
FC
DE
DE
CC
C0
C0
C0
C0
C0
C0
C0
C0
C0
C0
C0
C0
C0
ENDCHAR
STARTCHAR integralbt
ENCODING 296
SWIDTH 750 0
DWIDTH 14 0
BBX 7 18 1 -1
VVECTOR 2 19
SWIDTH1 0 -1286
DWIDTH1 0 -24
BITMAP 
06
06
06
06
06
06
06
06
06
06
06
06
06
66
F6
F6
7E
3C
ENDCHAR
STARTCHAR approxequal
ENCODING 297
SWIDTH 643 0
DWIDTH 12 0
BBX 8 8 2 2
VVECTOR 6 19
SWIDTH1 0 -1286
DWIDTH1 0 -24
BITMAP 
72
FF
4E
00
00
72
FF
4E
ENDCHAR
STARTCHAR uni2219
ENCODING 298
SWIDTH 643 0
DWIDTH 12 0
BBX 4 4 4 4
VVECTOR 6 19
SWIDTH1 0 -1286
DWIDTH1 0 -24
BITMAP 
F0
F0
F0
F0
ENDCHAR
STARTCHAR radical
ENCODING 299
SWIDTH 643 0
DWIDTH 12 0
BBX 12 14 0 0
VVECTOR 6 19
SWIDTH1 0 -1286
DWIDTH1 0 -24
BITMAP 
01F0
03F0
0300
0300
0700
0600
0600
0E00
EC00
EC00
3C00
3800
1800
1800
ENDCHAR
STARTCHAR uni207F
ENCODING 300
SWIDTH 429 0
DWIDTH 8 0
BBX 6 7 1 6
VVECTOR 4 19
SWIDTH1 0 -1286
DWIDTH1 0 -24
BITMAP 
D8
FC
CC
CC
CC
CC
CC
ENDCHAR
STARTCHAR uni02C9
ENCODING 301
SWIDTH 321 0
DWIDTH 6 0
BBX 6 2 0 15
VVECTOR 3 19
SWIDTH1 0 -1286
DWIDTH1 0 -24
BITMAP 
FC
FC
ENDCHAR
STARTCHAR breve
ENCODING 302
SWIDTH 429 0
DWIDTH 8 0
BBX 8 3 0 14
VVECTOR 4 19
SWIDTH1 0 -1286
DWIDTH1 0 -24
BITMAP 
C3
7E
3C
ENDCHAR
STARTCHAR dotaccent
ENCODING 303
SWIDTH 321 0
DWIDTH 6 0
BBX 2 2 2 15
VVECTOR 3 19
SWIDTH1 0 -1286
DWIDTH1 0 -24
BITMAP 
C0
C0
ENDCHAR
STARTCHAR ring
ENCODING 304
SWIDTH 321 0
DWIDTH 6 0
BBX 6 4 0 13
VVECTOR 3 19
SWIDTH1 0 -1286
DWIDTH1 0 -24
BITMAP 
78
CC
CC
78
ENDCHAR
STARTCHAR hungarumlaut
ENCODING 305
SWIDTH 321 0
DWIDTH 6 0
BBX 5 4 1 13
VVECTOR 4 19
SWIDTH1 0 -1286
DWIDTH1 0 -24
BITMAP 
48
48
D8
90
ENDCHAR
STARTCHAR ogonek
ENCODING 306
SWIDTH 321 0
DWIDTH 6 0
BBX 6 4 0 -4
VVECTOR 3 19
SWIDTH1 0 -1286
DWIDTH1 0 -24
BITMAP 
C0
C0
EC
78
ENDCHAR
STARTCHAR caron
ENCODING 307
SWIDTH 429 0
DWIDTH 8 0
BBX 8 3 0 14
VVECTOR 4 19
SWIDTH1 0 -1286
DWIDTH1 0 -24
BITMAP 
E7
7E
3C
ENDCHAR
STARTCHAR quoteleft
ENCODING 308
SWIDTH 214 0
DWIDTH 4 0
BBX 2 5 1 12
VVECTOR 2 19
SWIDTH1 0 -1286
DWIDTH1 0 -24
BITMAP 
40
C0
80
C0
C0
ENDCHAR
STARTCHAR quoteright
ENCODING 309
SWIDTH 214 0
DWIDTH 4 0
BBX 2 5 1 12
VVECTOR 2 19
SWIDTH1 0 -1286
DWIDTH1 0 -24
BITMAP 
C0
C0
40
C0
80
ENDCHAR
STARTCHAR quotedblleft
ENCODING 310
SWIDTH 321 0
DWIDTH 6 0
BBX 5 5 1 12
VVECTOR 4 19
SWIDTH1 0 -1286
DWIDTH1 0 -24
BITMAP 
48
D8
90
D8
D8
ENDCHAR
STARTCHAR quotedblright
ENCODING 311
SWIDTH 321 0
DWIDTH 6 0
BBX 5 5 1 12
VVECTOR 4 19
SWIDTH1 0 -1286
DWIDTH1 0 -24
BITMAP 
D8
D8
48
D8
90
ENDCHAR
STARTCHAR endash
ENCODING 312
SWIDTH 589 0
DWIDTH 11 0
BBX 9 2 1 5
VVECTOR 6 19
SWIDTH1 0 -1286
DWIDTH1 0 -24
BITMAP 
FF80
FF80
ENDCHAR
STARTCHAR emdash
ENCODING 313
SWIDTH 1018 0
DWIDTH 19 0
BBX 14 2 1 5
VVECTOR 7 19
SWIDTH1 0 -1286
DWIDTH1 0 -24
BITMAP 
FFFC
FFFC
ENDCHAR
STARTCHAR uniFFE5
ENCODING 314
SWIDTH 536 0
DWIDTH 10 0
BBX 10 4 0 13
VVECTOR 5 19
SWIDTH1 0 -1286
DWIDTH1 0 -24
BITMAP 
1E00
3F00
7380
E1C0
ENDCHAR
STARTCHAR dotlessi
ENCODING 315
SWIDTH 589 0
DWIDTH 11 0
BBX 11 3 0 14
VVECTOR 6 19
SWIDTH1 0 -1286
DWIDTH1 0 -24
BITMAP 
7C60
FFE0
C7C0
ENDCHAR
STARTCHAR quotesinglbase
ENCODING 316
SWIDTH 214 0
DWIDTH 4 0
BBX 2 5 1 -3
VVECTOR 2 19
SWIDTH1 0 -1286
DWIDTH1 0 -24
BITMAP 
C0
C0
40
C0
80
ENDCHAR
STARTCHAR quotedblbase
ENCODING 317
SWIDTH 321 0
DWIDTH 6 0
BBX 5 5 0 -3
VVECTOR 2 19
SWIDTH1 0 -1286
DWIDTH1 0 -24
BITMAP 
D8
D8
48
D8
90
ENDCHAR
STARTCHAR ellipsis
ENCODING 318
SWIDTH 1018 0
DWIDTH 19 0
BBX 14 2 3 0
VVECTOR 11 19
SWIDTH1 0 -1286
DWIDTH1 0 -24
BITMAP 
C30C
C30C
ENDCHAR
STARTCHAR dagger
ENCODING 319
SWIDTH 536 0
DWIDTH 10 0
BBX 8 18 1 0
VVECTOR 5 19
SWIDTH1 0 -1286
DWIDTH1 0 -24
BITMAP 
18
18
18
18
FF
FF
18
18
18
18
18
18
18
18
18
18
18
18
ENDCHAR
STARTCHAR daggerdbl
ENCODING 320
SWIDTH 536 0
DWIDTH 10 0
BBX 8 18 1 0
VVECTOR 5 19
SWIDTH1 0 -1286
DWIDTH1 0 -24
BITMAP 
18
18
18
18
FF
FF
18
18
18
18
FF
FF
18
18
18
18
18
18
ENDCHAR
STARTCHAR circumflex
ENCODING 321
SWIDTH 321 0
DWIDTH 6 0
BBX 6 3 0 11
VVECTOR 3 19
SWIDTH1 0 -1286
DWIDTH1 0 -24
BITMAP 
30
78
CC
ENDCHAR
STARTCHAR perthousand
ENCODING 322
SWIDTH 1018 0
DWIDTH 19 0
BBX 18 14 1 0
VVECTOR 11 19
SWIDTH1 0 -1286
DWIDTH1 0 -24
BITMAP 
783000
CC6000
846000
84C000
CD8000
798000
030000
060000
0CF780
0D9CC0
190840
310840
319CC0
60F780
ENDCHAR
STARTCHAR Scaron
ENCODING 323
SWIDTH 643 0
DWIDTH 12 0
BBX 10 19 1 0
VVECTOR 6 19
SWIDTH1 0 -1286
DWIDTH1 0 -24
BITMAP 
6180
3300
1E00
0000
0000
1E00
7F80
E1C0
C0C0
E000
7800
3F00
0780
01C0
00C0
C0C0
E1C0
7F80
1E00
ENDCHAR
STARTCHAR guilsinglleft
ENCODING 324
SWIDTH 321 0
DWIDTH 6 0
BBX 3 5 1 2
VVECTOR 2 19
SWIDTH1 0 -1286
DWIDTH1 0 -24
BITMAP 
20
60
C0
60
20
ENDCHAR
STARTCHAR OE
ENCODING 325
SWIDTH 1018 0
DWIDTH 19 0
BBX 19 14 0 0
VVECTOR 10 19
SWIDTH1 0 -1286
DWIDTH1 0 -24
BITMAP 
1F3FE0
3FFFE0
707000
603000
C03000
C03000
C03FC0
C03FC0
C03000
C03000
603000
707000
3FFFE0
1F3FE0
ENDCHAR
STARTCHAR tilde
ENCODING 326
SWIDTH 321 0
DWIDTH 6 0
BBX 6 2 0 12
VVECTOR 3 19
SWIDTH1 0 -1286
DWIDTH1 0 -24
BITMAP 
64
98
ENDCHAR
STARTCHAR trademark
ENCODING 327
SWIDTH 1018 0
DWIDTH 19 0
BBX 18 8 1 6
VVECTOR 11 19
SWIDTH1 0 -1286
DWIDTH1 0 -24
BITMAP 
FDE3C0
FDE3C0
31A2C0
31B6C0
3194C0
3194C0
3188C0
3188C0
ENDCHAR
STARTCHAR scaron
ENCODING 328
SWIDTH 482 0
DWIDTH 9 0
BBX 7 14 1 0
VVECTOR 5 19
SWIDTH1 0 -1286
DWIDTH1 0 -24
BITMAP 
C6
6C
38
00
38
7C
C6
E0
78
1C
06
C6
7C
38
ENDCHAR
STARTCHAR guilsinglright
ENCODING 329
SWIDTH 321 0
DWIDTH 6 0
BBX 3 5 2 2
VVECTOR 4 19
SWIDTH1 0 -1286
DWIDTH1 0 -24
BITMAP 
80
C0
60
C0
80
ENDCHAR
STARTCHAR oe
ENCODING 330
SWIDTH 964 0
DWIDTH 18 0
BBX 17 10 1 0
VVECTOR 10 19
SWIDTH1 0 -1286
DWIDTH1 0 -24
BITMAP 
1C3C00
7FFF00
63C300
C18180
C1FF80
C1FF80
C18000
63C180
7E7F00
1C1C00
ENDCHAR
ENDFONT
